<svg fill="none" height="40" viewBox="0 0 119 40" width="119" xmlns="http://www.w3.org/2000/svg"><g fill="#000"><path d="m45.5557 9.09198h4.5613v18.23172h4.5613v-22.79306h-4.5613c-2.5053 0-4.5613 2.04239-4.5613 4.56134z"/><path d="m59.2256 27.31h4.5613v-9.109c0-2.5053-2.056-4.5614-4.5613-4.5614z"/><path d="m68.3486 13.6396v13.6704h4.5614v-9.109h4.5613v4.5613c0 2.5054 2.056 4.5614 4.5613 4.5614v-9.1227c0-2.5053-2.056-4.5614-4.5613-4.5614z"/><path d="m109.359 13.6397h-4.561v-4.54772c0-2.50533-2.056-4.56134-4.561-4.56134v18.23176h-9.1093v-4.5614h4.5614v-4.5613h-4.5614c-2.5053 0-4.5613 2.056-4.5613 4.5613v4.5614c0 2.5053 2.056 4.5613 4.5613 4.5613h13.6703v-9.1227h4.561v4.5614c0 2.5053 2.056 4.5613 4.562 4.5613v-9.1227c0-2.5053-2.056-4.5613-4.562-4.5613z"/><path d="m59.2256 9.09198h4.5613c0-2.50533-2.056-4.56134-4.5613-4.56134z"/></g><g fill="#2f7aea"><path d="m51.9952 35.0166h-1.8927v-3.0908h1.8382v.5038h-1.2799v.7625h1.1437v.5038h-1.1437v.8033h1.3344z"/><path d="m60.2876 31.9258h.6536l-1.0757 1.5113 1.1165 1.5795h-.6536l-.8305-1.1574-.817 1.1574h-.6536l1.1166-1.5795-1.0621-1.5113h.6536l.7761 1.1165z"/><path d="m69.1931 34.3087.2179.4084c-.0953.109-.2451.1907-.4357.2451-.1907.0681-.3813.0953-.5855.0953-.4902 0-.8851-.1497-1.1846-.4357-.2996-.2859-.4493-.6808-.4493-1.1573 0-.463.1497-.8442.4357-1.1438.2859-.2995.6808-.4493 1.1982-.4493.4084 0 .7352.1089.9667.3132l-.2451.4084c-.2178-.1361-.4493-.2042-.7216-.2042-.2996 0-.5583.0953-.7489.2996-.1906.1906-.2859.4629-.2859.7897s.0953.5855.2995.7897c.2043.2042.4766.2996.7897.2996.2724-.0137.5311-.0954.7489-.2587z"/><path d="m78.2336 35.0166h-.5583v-1.3207h-1.4569v1.3207h-.5582v-3.0908h.5582v1.2663h1.4569v-1.2663h.5583z"/><path d="m84.9606 35.0167h-.5583l1.348-3.1045h.4902l1.348 3.1045h-.5991l-.3268-.7898h-1.3616zm1.4705-1.2935-.4629-1.1029-.463 1.1029z"/><path d="m96.4644 31.9258v3.0908h-.4493l-1.7565-2.1377v2.1377h-.5174v-3.0908h.4493l1.7565 2.1513v-2.1513z"/><path d="m105.126 33.8593h-.776v-.5038h1.294v1.2799c-.137.1362-.314.2451-.545.3132-.232.0817-.449.1089-.64.1089-.517 0-.926-.1497-1.225-.4357-.3-.2859-.436-.6672-.436-1.1573 0-.4494.15-.8306.436-1.1302.285-.2995.68-.4629 1.157-.4629.408 0 .749.1089 1.021.3132l-.231.4357c-.082-.0681-.191-.1362-.314-.177-.136-.0409-.258-.0681-.408-.0681-.313 0-.572.0953-.776.2859-.191.1906-.3.463-.3.7897 0 .3268.096.5855.3.7898.191.1906.449.2995.79.2995.109 0 .245-.0272.367-.0681.136-.0408.232-.0953.286-.1497z"/><path d="m113.92 35.0166h-1.893v-3.0908h1.838v.5038h-1.279v.7625h1.143v.5038h-1.143v.8033h1.334z"/></g><path d="m10.5621 22.4219 1.062-8.0062-9.24519-6.42669 8.44189 2.85939 1.9879-3.06363 7.2845-4.52049 16.0532 8.83672.8306 13.4934-7.1484 9.9397-5.6506.8578 2.9274-5.3511v-5.1468l-2.124-4.0167-2.165-1.4297-3.3223 3.4176v3.6218l-2.587 2.4237-3.295.3948-1.457.8306-2.39636-.7353-.99396-3.5946 1.79732-2.5189z" fill="#fff"/><path d="m25.3089 7.93455c-1.7564-.36763-3.6899-.27231-3.6899-.27231s-.6263 2.92746-4.5477 3.68996c.0272 0 5.1877 1.7564 8.2376-3.41765z" fill="#94a6c3"/><path d="m26.9017 34.4448c2.1241-1.6612 3.7172-3.9486 4.4524-6.5493.0273-.0953.3268-.2723.5311-.3948.3268-.2043.6671-.3677.7352-.6264.1362-.7625.2043-1.5658.2043-2.3555 0-.2996-.2996-.5991-.5991-.8987-.2315-.2042-.463-.4357-.463-.5991-.3268-3.0227-1.7292-5.8548-3.9486-7.9108l-.2315.2314c2.165 2.0288 3.5538 4.7792 3.8533 7.7066.0273.2724.2996.5311.5583.8034.2315.2042.5038.5038.5038.6263 0 .7625-.0681 1.525-.2043 2.2875-.0272.1361-.3267.2723-.5582.3949-.3268.1633-.6263.3267-.6944.5991-.8034 2.8185-2.6279 5.2829-5.0515 6.876.4357-.9259 1.7973-3.9486 2.5189-5.4872l-.1361-4.9154-4.221-4.0848-2.3964.3268-2.6279 4.2482s1.2255 1.5658-.5037 3.3904c-1.6884 1.7973-3.0228 2.1921-3.0228 2.1921l-1.2254-.6671c.3676-.463 1.1029-1.1574 1.6611-1.634.9668-.8033 1.9335-.8578 1.9335-1.7292.0272-1.7973-1.8926-1.2935-1.8926-1.2935l-.6944.6672-.2996 2.4645-1.4569 1.8245-.1634-.0272-2.3964-.531s1.4569-.7625 1.6884-1.634c.2315-.8305-.463-3.5946-.5038-3.758.0272.0273.6944.5991.994 1.525.531-1.4569 1.2254-2.8593 1.4296-2.9955.2043-.1361 2.8866-1.5658 2.8866-1.5658l-.8986 2.3555.6671-.3676 1.5931-3.9214s1.5658-.7625 2.7232-.7625c2.0968-.0272 5.1877-2.587 3.7852-7.1756.3949.1634 7.3118 3.6219 8.51 10.4026.9122 5.2558-2.0424 10.1439-7.0395 12.9624z" fill="#94a6c3"/><path d="m19.0051 8.65623c.7625-.89865.4629-2.23301.4629-2.23301l-2.233 3.29505c-.0272 0 .8034.04085 1.7701-1.06204z" fill="#1b314f"/><path d="m11.5146 26.6428.2724-1.3343s-1.1029 1.9334-1.1982 2.1921c-.0954.2996.068.8306.5037.8034.4358-.0273.9668-.6672.9668-1.1301-.0136-.5991-.5447-.5311-.5447-.5311z" fill="#1b314f"/><path d="m31.2596 5.49736s1.6611.06808 3.3904.27232c-3.8942-3.06358-7.5705-3.94862-10.566-3.94862-4.1256 0-6.9169 1.68838-7.0803 1.7973l1.2935-2.056s-5.1877-.50379-7.0122 4.98343c-.4629-1.15736-.8986-2.85935-.8986-2.85935s-2.68238 2.34194-1.42972 6.26333c-3.0772-1.1165-7.50238-2.68234-7.66577-2.72319-.23147-.02723-.299549.06808-.299549.06808s-.068079.09532.136159.27232c.36763.29955 7.33899 5.44642 8.87758 6.45392-.32677 1.1982-.32677 1.7565 0 2.3284.463.7625.5038 1.1573.4357 1.7292-.0681.5582-.66716 5.4464-.80332 6.0455s-1.52498 2.7231-1.4569 3.3631c.06808.6263.92588 3.3223 1.68837 3.6218.55825.2043 1.96065.6264 2.88655.6264.3268 0 .6264-.0681.7625-.2043.5583-.5038.7353-.5991 1.1301-.5991h.0954c.1633 0 .3676.0273.5991.0273.531 0 1.2254-.0954 1.7292-.5583.7352-.7353 1.9879-1.7292 2.3964-2.1922.5038-.6263.7625-1.4977.6263-2.3555-.0953-.8034.3268-1.4978.8306-2.1922.6263-.8306 1.7973-2.3283 1.7973-2.3283 2.2875 1.7292 3.7171 4.3571 3.7171 7.2845 0 5.1877-4.5204 9.3678-10.103 9.3678-.8578 0-1.6884-.0953-2.5189-.2996 2.5598.8987 4.7247 1.1982 6.4812 1.1982 3.758 0 5.7459-1.3616 5.7459-1.3616s-.6944.8987-1.8246 1.9335h.0273c6.2088-.8578 9.2452-5.9774 9.2452-5.9774s-.2315 1.6611-.531 2.7913c8.2785-6.2089 6.876-13.9972 6.8488-14.2559.0681.0953.8986 1.1029 1.3344 1.6339 1.3207-13.72486-9.8852-18.15004-9.8852-18.15004zm-12.7309 21.86724c-.1362.1633-.6944.6671-1.1029 1.0348-.3949.3676-.8306.7352-1.1574 1.062-.1361.1362-.3948.2042-.8033.2042-.1362 0-.2723 0-.3676 0-.0681 0-.1362 0-.2043 0-.068 0-.0953 0-.1361 0-.0953 0-.2043 0-.2996 0 .5038-.6671 1.9607-2.1921 2.4645-2.5189.5991-.3949.8987-.8033.531-1.4978-.3676-.6944-1.3343-.531-1.3343-.531s.5582-.2314 1.062-.2314c-.6263-.1634-1.4297 0-1.7973.3676-.3949.3676-.3268 1.6611-.5038 2.4917-.1634.8578-.7352 1.2935-1.593 2.0968-.463.4358-.8034.5583-1.0621.5583-.5582-.0953-1.2254-.2723-1.6884-.4357-.3267-.4357-.83054-1.8654-.9667-2.4645.09531-.3268.5038-1.0348.6944-1.4297.3949-.7625.6263-1.1982.6944-1.593.1362-.5583.5583-4.0576.7353-5.5145.4357.5583 1.0348 1.4978.8986 2.0969.9668-1.3616.2724-2.696-.068-3.227-.2996-.531-.6945-1.5931-.3677-2.7232.3677-1.1301 1.5659-4.2618 1.5659-4.2618s.3948.6944.9667.5583c.5582-.1362 5.1196-6.985 5.1196-6.985s1.2254 2.69596-.0681 4.65665c-1.3344 1.96065-2.6279 2.32835-2.6279 2.32835s1.8246.3268 3.5266-.8987c.6944 1.6339 1.3615 3.3223 1.4024 3.5538-.0953.2315-1.4297 3.4176-1.5658 3.6218-.0681.0681-.5311.2043-.8578.2723-.5583.1634-.8987.2724-1.0348.3677-.2315.2042-1.2936 3.118-1.7974 4.5477-.5991.1634-1.1982.5038-1.6339 1.1573.2315-.1633.9668-.2723 1.4978-.3267.4629-.0273 1.8926.7352 2.2602 2.1649v.0681c.0545.5446-.1089 1.0348-.3812 1.4297zm-3.1181.4084c.2996-.4357.2724-1.1573.2996-1.4024.0272-.2315.0953-.6672.3676-.7353s.8987.0273.8987.5038c0 .4357-.463.531-.8034.8306-.2314.2315-.6944.7352-.7625.8033zm13.262-6.345c.3267-1.6884.3676-3.1589.2723-4.3571 1.2935 1.7292 2.0968 3.8261 2.3283 5.9774.0272.2723.2996.531.5583.8033.2314.2043.5037.463.5037.6264 0 .7625-.068 1.525-.2042 2.2874-.0272.0954-.3268.2724-.5582.3949-.3268.1634-.6264.3268-.6945.5991-.7352 2.5598-2.2874 4.8201-4.3843 6.4131 3.0772-3.2133 4.575-8.5236 2.1786-12.7445zm-2.0969 13.0577c2.1649-1.6612 3.8261-3.9895 4.5477-6.6174.0273-.0953.3268-.2723.531-.3948.3268-.1634.6672-.3677.7353-.6264.1362-.7624.2042-1.5658.2042-2.3555 0-.2996-.2995-.5991-.5991-.8987-.1633-.2042-.4357-.4357-.4357-.5991-.2723-2.4236-1.2254-4.7247-2.7231-6.6173-.6672-3.9895-3.3223-5.2149-3.3904-5.2558.0681.0954 1.7973 2.5871.5991 5.5145-1.2255 2.9547-4.3843 2.4917-4.6567 2.5189-.2723 0-1.2935 1.3344-2.587 3.7853-.1634-.0681-.8578-.2315-1.6611-.0953.5991-1.6612 1.4977-4.0167 1.6611-4.221.0681-.0681.5583-.2042.8987-.2995.6263-.1634.9258-.2723 1.0348-.3949.068-.0953.3948-.8578.7352-1.6611.2996 0 1.0621-.0681 1.1302-.0953.068-.0681.6944-1.6884.6944-1.8927 0-.1634-1.2936-3.3903-1.7973-4.61576.2314-.27232.4629-.5991.6944-.96673 6.8079.73526 12.1318 6.50839 12.1318 13.52059 0 5.3919-3.1589 10.0758-7.7475 12.268z" fill="#1b314f"/><path d="m17.7376 16.5399c.6264-.7353.2996-2.0969-.8578-2.3284.2996-.6944.7353-2.0968.7353-2.0968s-3.3904 5.3238-3.6899 5.4191c-.2996.0953-.5991-1.062-.5991-1.062-.6264 2.4236 1.062 2.764 1.2662 1.9879.9123-.2315 2.5054-1.2254 3.1453-1.9198z" fill="#1b314f"/><path d="m14.8525 17.8334 1.7293-2.9547s.9939.5038.5038 1.2935c-.64.9259-2.2331 1.6612-2.2331 1.6612z" fill="#ffd923"/><path d="m36.2136 31.531c-.5038.6672-1.062 1.3616-1.7292 2.0288 4.289-8.2377.2042-15.7809.0272-16.0804.2996.2995.5991.6263.8578.9259 3.3087 3.649 3.7035 9.1362.8442 13.1257z" fill="#d82122"/><path d="m40.2043 20.9241c-1.4977-4.0167-3.6218-7.4479-8.3057-10.5387-4.5205-2.99552-9.3678-2.76405-9.6401-2.7232-.0272 0-.0681 0-.0681 0 .1634-.06808.3268-.09532.5038-.13616 1.0348-.32679 2.3556-.59911 3.6899-.7625 3.5266-.50379 7.0803.69442 9.504 3.25426l.068.068c2.7505 2.9275 4.1801 6.5901 4.2482 10.8383z" fill="#d82122"/><path d="m30.8237 4.4761c-4.9562-.92588-8.1423-.46294-10.4298.39486-.0681-.27232-.2995-.80334-.5038-1.22543-.6944.83057-1.4297 1.82453-1.8926 2.46448-1.2663.85781-1.7973 1.68838-1.7973 1.68838.7353-2.49172 2.8593-4.3571 5.4464-4.82004.7352-.13616 1.525-.20424 2.3964-.20424 2.3011.04085 4.5885.5991 6.7807 1.70199z" fill="#d82122"/><path d="m12.5229 10.8485c-3.89413-.1362-2.587-4.65669-2.5189-4.91539-.01364.04084.2587 3.55375 2.5189 4.91539z" fill="#d82122"/><path d="m16.3358 2.70605c-2.9955 1.79731-2.3964 6.08633-2.3964 6.08633-2.8458-4.3571 2.1649-5.9774 2.3964-6.08633z" fill="#d82122"/><path d="m11.4201 12.0466c.2043.1634.3949.4629.1634.8987-.1361.2314-.3268.2042-.6263.068-.3949-.2042-2.79129-1.593-4.95622-3.0227 2.46448.8578 4.95622 1.7973 5.35102 1.9879 0 0 .0409.0409.0681.0681z" fill="#fff"/></svg>