<svg fill="none" height="28" viewBox="0 0 95 28" width="95" xmlns="http://www.w3.org/2000/svg" xmlns:xlink="http://www.w3.org/1999/xlink"><linearGradient id="a" gradientUnits="userSpaceOnUse" x1="93.8028" x2=".699644" y1="1.43104" y2="27.4999"><stop offset="0" stop-color="#a55ca3"/><stop offset=".510417" stop-color="#7581b1"/><stop offset="1" stop-color="#34b6c6"/></linearGradient><clipPath id="b"><path d="m.700195.5h94.0345v27h-94.0345z"/></clipPath><g clip-path="url(#b)"><path clip-rule="evenodd" d="m49.1034 3.73357 9.0198 21.87933c.1539.4815.4545.903.8596 1.2055.4052.3024.8946.4708 1.4001.4815h.7979c.5052-.0103.9947-.1782 1.3999-.4801.4053-.3019.7061-.723.8606-1.2041l9.0199-21.87934c.0708-.19949.1083-.40931.1108-.621.0176-.4486-.1416-.88619-.4432-1.21872-.1547-.1584-.3415-.28188-.5478-.36216-.2064-.0803-.4275-.11553-.6486-.10336-.335.00437-.6603.1127-.931.31004-.2838.21091-.5057.4942-.6424.82024l-8.5767 21.4138-8.5767-21.4138c-.1368-.32604-.3587-.60933-.6424-.82024-.2708-.19734-.5961-.30567-.9311-.31004-.221-.01217-.4421.02306-.6485.10336-.2063.08028-.3931.20376-.5478.36216-.301.33183-.4601.76828-.4432 1.21593.0025.21169.0399.42152.1108.621zm26.9498 22.35803c.08.2019.2002.3855.3534.5397.1477.1616.3302.2878.5337.3687.2036.081.4228.1147.6412.0987h14.6527c.2047.0025.4079-.0353.598-.1114.1902-.076.3634-.1888.5099-.3318.1516-.1366.2718-.3046.3522-.4922s.1189-.3903.1133-.5943c.0037-.2069-.0359-.4123-.1161-.6031-.0802-.1907-.1992-.3627-.3494-.5049-.1409-.152-.3127-.2722-.5037-.3525-.1911-.0803-.3971-.1188-.6042-.113h-12.9684v-8.1121h11.6575c.2047.0025.4079-.0353.5981-.1113.1901-.076.3632-.1888.5098-.3319.1517-.1365.2719-.3045.3522-.4921s.1191-.3904.1133-.5944c.0014-.2066-.0391-.4113-.1191-.6017-.08-.1905-.1979-.3627-.3464-.5062-.141-.152-.3127-.2721-.5037-.3524-.1911-.0803-.3971-.1189-.6042-.1131h-11.6575v-8.06934h12.9684c.2047.00257.4079-.03524.598-.11128.1902-.07605.3634-.18883.5099-.33189.1516-.13657.2718-.30447.3522-.49207s.1189-.39044.1133-.59445c.0037-.20688-.0359-.41224-.1161-.60299-.0802-.19076-.1992-.36272-.3494-.50494-.1409-.15202-.3127-.27218-.5037-.35247-.1911-.08028-.3971-.11883-.6042-.11304h-14.6527c-.2192-.00721-.4375.03251-.64.11649-.2027.08398-.385.21027-.5349.37044-.3065.32241-.4737.75253-.4655 1.19731v22.16423c-.0061.2171.0321.4332.1121.6353zm-24.9114-1.0998-9.0198-21.87933c-.1549-.48068-.456-.90103-.8612-1.20244-.4053-.30142-.8945-.46887-1.3994-.47901h-.7979c-.5052.01033-.9947.1782-1.4.48014-.4051.30195-.7061.7229-.8605 1.2041l-3.9225 9.53104h-2.97c-.4283.0024-.8385.1737-1.1414.4766-.303.3029-.4743.7131-.4767 1.1415v.0223c.0024.4284.1737.8386.4767 1.1416.3029.3028.7131.4742 1.1414.4766h1.5958l-3.7455 9.0878c-.0709.1995-.1083.4093-.1108.621-.0176.4486.1415.8862.4432 1.2187.1547.1584.3415.2819.5478.3622.2064.0803.4275.1155.6485.1034.335-.0044.6603-.1127.9311-.3101.2838-.2109.5056-.4942.6424-.8202l4.1226-10.2619h2.8369c.4283-.0024.8386-.1737 1.1415-.4766s.4742-.7132.4766-1.1415v-.0456c-.0024-.4284-.1737-.8386-.4766-1.1416-.3029-.3029-.7132-.4742-1.1415-.4766h-1.5288l3.1655-7.86816 8.5767 21.41376c.1368.3261.3587.6094.6424.8203.2708.1974.5961.3056.9311.31.2211.0122.4422-.0231.6485-.1033.2063-.0803.3931-.2038.5478-.3622.3017-.3326.4608-.7702.4432-1.2187.0101-.2132-.0264-.4262-.1071-.6238zm-35.9693-21.87933 9.0199 21.87933c.0816.1974.119.4103.1099.6238.0176.4485-.1416.8861-.4432 1.2187-.1548.1584-.3415.2819-.5478.3622-.2064.0802-.4275.1155-.6486.1033-.335-.0044-.6603-.1126-.931-.31-.2838-.2109-.5057-.4942-.6424-.8203l-8.5767-21.41376-3.14693 7.86816h1.52973c.4283.0024.8385.1737 1.1415.4766.3029.303.4742.7132.4766 1.1416v.0446c-.0024.4284-.1737.8386-.4766 1.1416-.303.3028-.7132.4742-1.1415.4766h-2.85925l-4.12262 10.2618c-.13677.3261-.35864.6094-.64241.8203-.27072.1974-.59606.3056-.93103.31-.22108.0122-.44221-.0231-.64854-.1033-.20635-.0803-.39314-.2038-.54784-.3622-.301632-.3326-.460758-.7702-.443175-1.2187.002506-.2117.03994-.4215.110793-.621l3.745552-9.0869h-1.59579c-.4284-.0024-.83857-.1738-1.1415-.4766-.30293-.303-.4742-.7132-.47664-1.1416v-.0223c.00244-.4284.17371-.8386.47664-1.1415s.7131-.4742 1.1415-.4766h2.97l3.92244-9.53104c.15447-.4812.45527-.90215.86057-1.2041.4053-.30194.8947-.46981 1.4-.48014h.7979c.5049.01014.994.17759 1.3993.47901.4052.30141.7063.72176.8612 1.20244z" fill="url(#a)" fill-rule="evenodd"/></g></svg>