<svg fill="none" height="37" viewBox="0 0 145 37" width="145" xmlns="http://www.w3.org/2000/svg" xmlns:xlink="http://www.w3.org/1999/xlink"><clipPath id="a"><path d="m.5.100037h144v36.9h-144z"/></clipPath><clipPath id="b"><path d="m.5 3.79004h144v29.52h-144z"/></clipPath><g clip-path="url(#a)"><g clip-path="url(#b)"><g fill="#e84142"><path d="m39.4498 13.4036h1.5655l4.3803 10.2902h-2.0681l-.9479-2.3546h-4.409l-.9192 2.3546h-2.025zm2.2979 6.366-1.5654-4.1859-1.5942 4.1859z"/><path d="m47.3359 13.4036h2.0825l2.7718 7.7758 2.8579-7.7758h1.9535l-4.1076 10.2902h-1.5654z"/><path d="m63.4691 13.4036h1.5658l4.38 10.2902h-2.068l-.9477-2.3546h-4.4093l-.9193 2.3546h-2.0247zm2.298 6.366-1.5653-4.1859-1.5942 4.1859z"/><path d="m73.417 13.4036h1.8097v8.6333h4.3227v1.6569h-6.1324z"/><path d="m87.0258 13.4036h1.5658l4.3799 10.2902h-2.068l-.9477-2.3546h-4.4092l-.9193 2.3546h-2.0248zm2.2979 6.366-1.5653-4.1859-1.5942 4.1859z"/><path d="m96.9736 13.4036h2.3985l4.9259 7.645h.029v-7.645h1.809v10.2902h-2.297l-5.0273-7.8921h-.0284v7.8921h-1.8097z"/><path d="m118.256 15.8162c-.373-.407-.737-.6782-1.092-.8139-.344-.1357-.694-.2035-1.048-.2035-.526 0-1.005.0969-1.436.2907-.421.1841-.785.4457-1.092.7849-.306.3294-.545.717-.718 1.1627-.163.4457-.244.9253-.244 1.4388 0 .5524.081 1.0611.244 1.5261.173.4652.412.8673.718 1.2064.307.3391.671.6056 1.092.7994.431.1938.91.2907 1.436.2907.412 0 .809-.0969 1.192-.2907.393-.2035.756-.5232 1.092-.9593l1.493 1.0756c-.459.6395-1.019 1.1046-1.68 1.3953-.661.2906-1.365.436-2.111.436-.786 0-1.508-.126-2.169-.3779-.651-.2616-1.216-.625-1.694-1.0901-.47-.4748-.839-1.0416-1.106-1.7005-.269-.6589-.403-1.3904-.403-2.1947 0-.8235.134-1.5697.403-2.2382.267-.6783.636-1.2548 1.106-1.7296.478-.4748 1.043-.8382 1.694-1.0901.661-.2616 1.383-.3924 2.169-.3924.689 0 1.326.126 1.91.3779.593.2422 1.144.6589 1.652 1.25z"/><path d="m123.98 13.4036h1.81v4.0986h4.753v-4.0986h1.81v10.2902h-1.81v-4.5347h-4.753v4.5347h-1.81z"/><path d="m137.498 13.4036h6.736v1.6569h-4.926v2.5289h4.667v1.6569h-4.667v2.7906h5.184v1.6569h-6.994z"/></g><path d="m15.0852 30.1162c6.312 0 11.4289-5.1783 11.4289-11.5661 0-6.3879-5.1169-11.56621-11.4289-11.56621-6.31204 0-11.42895 5.17831-11.42895 11.56621 0 6.3878 5.11691 11.5661 11.42895 11.5661z" fill="#fff"/><path clip-rule="evenodd" d="m29.6697 18.55c0 8.1518-6.5299 14.76-14.5849 14.76-8.05494 0-14.5848-6.6082-14.5848-14.76 0-8.1517 6.52986-14.75996 14.5848-14.75996 8.055 0 14.5849 6.60826 14.5849 14.75996zm-18.7178 5.8735h-2.83045c-.59475 0-.88857 0-1.06774-.1161-.19345-.1269-.31171-.3372-.32605-.5692-.01073-.214.13616-.475.42997-.9972l6.98887-12.4668c.2974-.52938.4479-.79406.6378-.89197.2042-.10512.4478-.10512.6521 0 .1899.09791.3404.36259.6377.89197l1.4368 2.5382.0073.0129c.3212.568.4841.856.5552 1.1583.0788.3299.0788.678 0 1.008-.0716.3046-.2329.5947-.5589 1.1712l-3.6711 6.5674-.0095.0168c-.3234.5726-.4872.8628-.7143 1.0818-.2472.2393-.5446.4134-.8706.5113-.2974.0834-.6306.0834-1.2971.0834zm7.148.0003h4.0559c.5984 0 .8993 0 1.0785-.1196.1934-.127.3153-.3409.326-.573.0104-.2068-.1333-.4578-.415-.9496-.0096-.0168-.0194-.0338-.0293-.0511l-2.0315-3.5172-.0231-.0396c-.2855-.4886-.4297-.7353-.6147-.8306-.2042-.1052-.4442-.1052-.6484 0-.1864.0978-.3369.3553-.6343.8738l-2.0243 3.5172-.0069.0121c-.2964.5177-.4445.7764-.4338.9887.0143.232.1326.446.3261.5729.1755.116.4765.116 1.0748.116z" fill="#e84142" fill-rule="evenodd"/></g></g></svg>