<svg fill="none" height="30" viewBox="0 0 140 30" width="140" xmlns="http://www.w3.org/2000/svg"><g fill="#f3ba2f"><path d="m8.56249 12.7531 5.43771-5.46847 5.4406 5.47137 3.1641-3.18207-8.6047-8.653886-8.60176 8.650996z"/><path d="m6.32806 14.9996-3.164-3.182-3.16415099 3.1821 3.16400099 3.1821z"/><path d="m8.56225 17.2469 5.43775 5.4685 5.4404-5.4711 3.1658 3.1803-.0015.0017-8.6047 8.6537-8.60202-8.6508-.00443-.0044z"/><path d="m24.8368 18.1832 3.1642-3.1822-3.164-3.182-3.1642 3.1822z"/><path d="m17.2097 14.9983h.0014l-3.2108-3.229-2.3727 2.3863h-.0002l-.2725.2743-.5624.5656-.0044.0044.0044.0047 3.2078 3.2261 3.2108-3.229.0015-.0018z"/><path d="m32.9336 7.74347h6.8816c1.708 0 2.9996.44082 3.8749 1.32247.6774.68281 1.016 1.52906 1.016 2.53866v.0427c0 .4266-.0524.8036-.1579 1.1305-.1053.3274-.246.6221-.4218.8852-.1753.2633-.3793.4944-.611.6933-.232.1993-.4813.3701-.7482.512.8585.3274 1.5344.7715 2.0271 1.3333.4925.5621.7391 1.3407.7391 2.336v.0425c0 .6828-.1305 1.28-.3917 1.7922-.2611.5118-.6353.9386-1.1225 1.28s-1.0731.5972-1.7578.768c-.6847.1706-1.4434.2558-2.2761.2558h-7.0517zm6.1936 6.03693c.7214 0 1.2942-.1241 1.7182-.3732.4242-.2488.6362-.6508.6362-1.2052v-.0427c0-.4976-.184-.8779-.5515-1.1412-.3678-.2632-.8981-.3948-1.5908-.3948h-3.2242v3.1571zm.8698 6.0161c.7212 0 1.2865-.1312 1.697-.3946.41-.2631.6152-.6721.6152-1.2268v-.0425c0-.4977-.1911-.8923-.5728-1.1841-.3819-.2911-.9969-.437-1.8455-.437h-3.7758v3.2852h3.8819z"/><path d="m49.6309 7.74347h3.2668v14.93303h-3.2668z"/><path d="m57.8467 7.74347h3.0117l6.9577 9.19453v-9.19453h3.2242v14.93303h-2.7786l-7.191-9.493v9.493h-3.224z"/><path d="m80.9296 7.63684h3.0119l6.3639 15.03956h-3.4153l-1.3576-3.3491h-6.2788l-1.3575 3.3491h-3.3308zm3.4363 8.78886-1.9729-4.8424-1.9723 4.8424z"/><path d="m93.832 7.74347h3.0124l6.9576 9.19453v-9.19453h3.224v14.93303h-2.779l-7.1908-9.493v9.493h-3.2242z"/><path d="m118.782 22.9323c-1.089 0-2.1-.1993-3.033-.5972-.934-.3978-1.74-.9421-2.418-1.632-.679-.6897-1.21-1.504-1.591-2.4426-.382-.9388-.573-1.9414-.573-3.0081v-.0425c0-1.0667.191-2.0655.573-2.9972.381-.9315.912-1.7493 1.591-2.45326.678-.70394 1.491-1.25886 2.439-1.6641.947-.40523 1.994-.60785 3.139-.60785.693 0 1.326.05716 1.898.17059.573.1141 1.093.27023 1.56.46929.467.19928.897.44105 1.294.72529.395.28469.763.59741 1.103.93881l-2.079 2.41053c-.58-.526-1.17-.9388-1.771-1.2373-.602-.2985-1.277-.4479-2.026-.4479-.622 0-1.199.121-1.729.3627-.53.2418-.986.5758-1.368 1.0024s-.679.921-.891 1.4826c-.212.5621-.318 1.1628-.318 1.8027v.0425c0 .6399.106 1.2446.318 1.8131.212.5692.505 1.0667.88 1.4933s.828.7646 1.358 1.0135c.53.2491 1.114.3732 1.75.3732.849 0 1.566-.1563 2.153-.4693.587-.3124 1.17-.7393 1.75-1.2799l2.079 2.112c-.382.4126-.779.7824-1.188 1.1092-.41.3274-.859.608-1.347.8429-.488.2344-1.022.4126-1.602.5331-.58.1208-1.23.1815-1.951.1815z"/><path d="m128.715 7.74347h11.179v2.92273h-7.955v3.0293h7v2.9225h-7v3.136h8.061v2.9225h-11.285z"/></g></svg>