<svg width="30" height="30" viewBox="0 0 30 30" fill="none" xmlns="http://www.w3.org/2000/svg">
    <path fill-rule="evenodd" clip-rule="evenodd" d="M8.00036 14.9284C7.9819 16.7436 8.6652 18.5647 10.0503 19.9498C11.4352 21.3347 13.2561 22.018 15.0712 21.9997L11.4642 25.6066C9.51162 27.5593 6.3458 27.5593 4.39318 25.6066C2.44056 23.654 2.44056 20.4882 4.39318 18.5356L8.00036 14.9284ZM10.083 10.0175C10.072 10.0284 10.061 10.0393 10.05 10.0503L2.97896 17.1214C0.245293 19.855 0.245293 24.2872 2.97896 27.0208C5.71263 29.7545 10.1448 29.7545 12.8785 27.0208L19.9168 19.9825C19.9278 19.9717 19.9388 19.9607 19.9497 19.9498L27.0208 12.8787C29.7545 10.145 29.7545 5.71288 27.0208 2.97921C24.2871 0.245538 19.855 0.245538 17.1213 2.97921L10.083 10.0175ZM11.4921 11.4368L11.4645 11.4645C9.51184 13.4171 9.51184 16.5829 11.4645 18.5356C13.4078 20.4789 16.5529 20.4881 18.5077 18.5632L18.5353 18.5356C20.4879 16.5829 20.4879 13.4171 18.5353 11.4645C16.592 9.52114 13.4469 9.51192 11.4921 11.4368ZM21.9994 15.0717C22.0179 13.2564 21.3346 11.4353 19.9495 10.0503C18.5646 8.66534 16.7437 7.98204 14.9286 8.00039L18.5355 4.39342C20.4882 2.4408 23.654 2.4408 25.6066 4.39342C27.5592 6.34604 27.5592 9.51187 25.6066 11.4645L21.9994 15.0717Z" fill="#356DF3" />
</svg>
    