<svg width="30" height="30" viewBox="0 0 30 30" fill="none" xmlns="http://www.w3.org/2000/svg">
    <g clip-path="url(#clip0_1565_14008)">
        <path fill-rule="evenodd" clip-rule="evenodd" d="M14.2927 7.22187C16.2454 9.17449 16.2454 12.3403 14.2927 14.2929L14.2932 14.2934C11.56 17.0271 11.5601 21.4589 14.2936 24.1924C15.0527 24.9514 15.9427 25.4997 16.8909 25.8372C13.4843 26.4286 9.85266 25.4089 7.22198 22.7782C2.92621 18.4824 2.92621 11.5176 7.22198 7.22185L7.26533 7.17873C9.2212 5.26936 12.3546 5.28374 14.2927 7.22187ZM5.8076 5.8078C0.73095 10.8846 0.731006 19.1156 5.80777 24.1924C10.8585 29.2432 19.0314 29.2691 24.1142 24.2701C24.1406 24.2445 24.167 24.2185 24.1931 24.1924L24.1929 24.1921C29.2694 19.1153 29.2693 10.8843 24.1925 5.80763C19.1343 0.749375 10.9447 0.730886 5.86356 5.75216C5.84478 5.77054 5.82608 5.78903 5.80745 5.80766L5.8076 5.8078ZM15.7074 15.7067L15.7079 15.7071C13.7552 17.6597 13.7552 20.8255 15.7079 22.7782C17.6401 24.7104 20.7604 24.7306 22.7175 22.8386C22.7378 22.8186 22.7581 22.7984 22.7783 22.7782C27.0741 18.4824 27.0741 11.5176 22.7783 7.22185C20.1477 4.59122 16.5162 3.57152 13.1096 4.16277C14.0578 4.50029 14.9479 5.04859 15.7069 5.80766C18.4405 8.54117 18.4406 12.973 15.7074 15.7067ZM12.1716 9.34319C12.9527 10.1242 12.9527 11.3906 12.1716 12.1716C11.3906 12.9527 10.1243 12.9527 9.34322 12.1716C8.56217 11.3906 8.56217 10.1242 9.34322 9.34319C10.1243 8.56214 11.3906 8.56214 12.1716 9.34319ZM20.657 20.6568C21.438 19.8758 21.438 18.6095 20.657 17.8284C19.8759 17.0474 18.6096 17.0474 17.8286 17.8284C17.0475 18.6095 17.0475 19.8758 17.8286 20.6568C18.6096 21.4379 19.8759 21.4379 20.657 20.6568Z" fill="#356DF3" />
    </g>
    <defs>
        <clipPath id="clip0_1565_14008">
            <rect width="30" height="30" fill="white" />
        </clipPath>
    </defs>
</svg>
    