<svg fill="none" height="34" viewBox="0 0 133 34" width="133" xmlns="http://www.w3.org/2000/svg" xmlns:xlink="http://www.w3.org/1999/xlink"><clipPath id="a"><path d="m.800781.799988h131.417v32.4h-131.417z"/></clipPath><g clip-path="url(#a)"><path d="m45.5206 10.2141c1.092-.0278 2.1735.2187 3.1455.717.8665.4594 1.5779 1.1645 2.0449 2.0269.4925.933.7393 1.976.717 3.0307-.0057.5324-.0568 1.0634-.1529 1.5871-.1945 1.2075-.6617 2.3548-1.3661 3.3547-.6799.9618-1.5818 1.7453-2.6292 2.284-1.0823.5543-2.2833.8369-3.4992.8232-1.1012.0284-2.1921-.218-3.1742-.717-.8674-.4542-1.5794-1.157-2.0449-2.0184-.4871-.9304-.7309-1.969-.7085-3.019.0044-.5452.0556-1.0889.1529-1.6253.1947-1.208.6623-2.3557 1.3672-3.3558.6804-.9628 1.5864-1.7441 2.6388-2.2754 1.0878-.5473 2.291-.826 3.5087-.8127zm-.2103 2.4858c-1.1198-.0155-2.2023.4024-3.0212 1.1664-.8833.832-1.4623 1.9361-1.6444 3.1359-.058.3541-.09.712-.0956 1.0708 0 1.0708.3059 1.9153.9178 2.5335.6119.6183 1.4529.9274 2.523.9274.7404.0061 1.4704-.1748 2.1224-.5258.6611-.3605 1.2253-.8755 1.6445-1.501.4591-.6835.7597-1.4609.8795-2.2755.0674-.3589.0994-.7236.0956-1.0888 0-1.0708-.3059-1.9118-.9178-2.523s-1.4465-.9178-2.5038-.9199zm15.3162.478c1.1727 0 2.1065.363 2.8012 1.0889.6948.7259 1.0421 1.7329 1.0421 3.0211-.0018.4422-.0402.8835-.1147 1.3194-.1738 1.033-.5578 2.0193-1.1281 2.8979-.5058.7825-1.1955 1.4291-2.0088 1.8835-.7718.4281-1.6404.6516-2.523.649-.7748.0359-1.5391-.1897-2.1703-.6405-.55-.419-.9224-1.0295-1.0431-1.7103l-1.2801 7.2661h-2.6961l2.7545-15.6412h2.6951l-.4016 2.1989c.3894-.708.9646-1.2964 1.6636-1.7018.7309-.4252 1.5638-.6434 2.4093-.631zm-2.352 8.4899c.7971.0118 1.5691-.2785 2.1607-.8127.6393-.5922 1.0575-1.3848 1.1856-2.2467.0361-.2406.0553-.4834.0573-.7267.0204-.317-.0242-.6349-.1311-.9341-.1068-.2992-.2737-.5735-.4903-.8059-.2299-.2111-.4998-.3739-.7938-.4788s-.606-.1498-.9176-.132c-.7995-.0063-1.5717.291-2.1607.8318-.6433.5891-1.0623 1.3831-1.1855 2.2467-.037.2276-.0562.4578-.0574.6884-.0177.3182.0299.6367.1401.9359.1102.2991.2805.5724.5005.8031.2251.2135.491.3795.7818.4879.2908.1085.6004.1571.9104.1431zm10.7462-1.4543c-.0288.1512-.0416.305-.0382.4589-.0151.1322.0013.266.0478.3906.0466.1246.1219.2365.2199.3264.2654.1562.5727.2263.8795.2008h1.0517l-.4207 2.3148h-1.416c-1.007 0-1.7783-.2036-2.3137-.6109-.5354-.4072-.8031-1.0764-.8031-2.0077.0029-.3725.0413-.7438.1148-1.109l.8031-4.5892h-1.4713l.4015-2.2754h1.4724l.4589-2.6196h2.7152l-.4589 2.6196h2.3328l-.4015 2.2754h-2.352zm5.9659-9.6754c-.0047-.2352.0426-.4685.1385-.68334.0958-.21483.2379-.40588.416-.55955.3851-.33718.8843-.51496 1.3958-.49715.371-.02119.7363.0983 1.023.33462.122.10891.2185.24329.2827.39364.0643.15034.0947.31298.0891.47638.0056.233-.0404.4644-.1346.6776s-.2343.4029-.4103.5557c-.3836.3325-.8791.5068-1.3863.4876-.3755.0231-.7464-.0926-1.0421-.325-.1222-.1065-.219-.2389-.2834-.3876-.0643-.1487-.0945-.3099-.0884-.4718zm2.4857 2.7726-1.8739 10.5943h-2.695l1.8739-10.5932zm15.9472-.153c1.0963 0 1.9472.2964 2.5527.8892.6055.5927.9083 1.4436.9083 2.5527.0019.3844-.0301.7684-.0956 1.1472l-1.09 6.1582h-2.6961l1.0517-5.8512c.037-.2147.0562-.4322.0574-.6501.0172-.2573-.0199-.5154-.1088-.7576-.089-.2421-.2278-.4628-.4075-.6478-.3959-.3437-.9107-.5188-1.4341-.4876-.6968-.0199-1.3757.2223-1.9026.6788-.5578.5307-.9185 1.2354-1.023 1.9982l-1.0134 5.7173h-2.6961l1.0517-5.8512c.0369-.2147.0561-.4322.0573-.6501.0173-.2573-.0198-.5154-.1087-.7576-.089-.2421-.2278-.4628-.4075-.6478-.396-.3437-.9107-.5188-1.4341-.4876-.7072-.0166-1.3942.2363-1.9217.7075-.5692.5496-.9306 1.2793-1.023 2.0651v-.0956l-.9943 5.7173h-2.7152l1.8738-10.5932h2.6961l-.3452 1.9886c.3798-.6605.9316-1.2057 1.5966-1.5775.6744-.3774 1.4358-.5719 2.2085-.5641.7548-.0297 1.499.1844 2.1225.6108.5746.429.9697 1.0558 1.109 1.7592.4478-.7159 1.0651-1.3103 1.7974-1.7305.7069-.4179 1.5128-.6387 2.3339-.6395zm6.7115-2.6196c-.005-.2352.043-.4685.139-.68334.095-.21483.237-.40588.416-.55955.385-.33718.884-.51496 1.395-.49715.371-.02119.737.0983 1.023.33462.122.10891.219.24329.283.39364.064.15034.095.31298.089.47638.006.233-.04.4644-.134.6776-.095.2132-.235.4029-.411.5557-.383.3325-.879.5068-1.386.4876-.375.0231-.746-.0926-1.042-.325-.122-.1065-.219-.2389-.283-.3876-.065-.1487-.095-.3099-.089-.4718zm2.486 2.7726-1.874 10.5943h-2.6961l1.8738-10.5932zm5.603-.1328c1.428 0 2.515.3219 3.261.9656.373.3266.673.7275.882 1.1769.209.4495.322.9376.332 1.4332h-2.639c.005-.2338-.042-.4658-.138-.6791s-.238-.4026-.416-.5542c-.435-.3243-.97-.4836-1.511-.4494-.417-.0195-.829.0944-1.176.3251-.143.0972-.258.2287-.337.3824-.078.1537-.117.3246-.112.4972-.002.1782.049.353.146.5027.096.1496.235.2674.399.3386.542.2555 1.109.4542 1.692.5928.613.173 1.216.3805 1.806.6214.462.1952.874.4927 1.204.87.352.4224.533.9614.507 1.5106 0 .2442-.026.4877-.076.7266-.078.3879-.236.7553-.463 1.0793s-.519.5974-.857.8031c-.726.478-1.695.717-2.906.717-1.39 0-2.502-.3151-3.338-.9454-.408-.3043-.738-.7015-.963-1.1587-.224-.4572-.337-.9612-.328-1.4705h2.639c-.026.234.011.4708.107.6858.095.2151.247.4008.438.538.492.3325 1.08.4938 1.673.4589.418.0285.832-.094 1.167-.3453.129-.1066.232-.2412.302-.3936.069-.1523.103-.3185.099-.4859.004-.1308-.021-.2607-.072-.3811s-.128-.2285-.224-.3169c-.214-.1944-.464-.3439-.736-.4397-.294-.1084-.714-.2391-1.262-.392-.597-.1609-1.185-.356-1.76-.5843-.442-.1825-.836-.4676-1.147-.8318-.332-.4093-.502-.9265-.478-1.4532.001-.2306.02-.4608.058-.6884.071-.3939.225-.7683.451-1.099.226-.3306.519-.6102.859-.8205.733-.4908 1.705-.7362 2.916-.7362zm20.537-.0191c1.096 0 1.947.2964 2.552.8891.606.5928.909 1.4437.909 2.5527.002.3845-.03.7684-.096 1.1473l-1.091 6.1571h-2.696l1.052-5.8512c.037-.2147.056-.4322.057-.6501.017-.2573-.02-.5154-.109-.7576-.089-.2421-.228-.4628-.407-.6478-.396-.3437-.911-.5188-1.434-.4876-.697-.0199-1.376.2223-1.903.6788-.558.5307-.918 1.2354-1.023 1.9982l-1.013 5.7173h-2.696l1.051-5.8512c.037-.2147.056-.4322.058-.6501.017-.2573-.02-.5154-.109-.7576-.089-.2421-.228-.4628-.408-.6478-.396-.3437-.91-.5188-1.434-.4876-.707-.0166-1.394.2363-1.921.7075-.57.5496-.931 1.2793-1.023 2.0651v-.0956l-.995 5.7173h-2.715l1.873-10.5932h2.696l-.345 1.9886c.38-.6605.931-1.2057 1.596-1.5775.675-.3774 1.436-.5719 2.209-.5641.755-.0297 1.499.1844 2.122.6108.575.429.97 1.0558 1.109 1.7592.448-.7159 1.065-1.3103 1.798-1.7305.707-.4181 1.513-.6389 2.335-.6395z" fill="#000"/><path d="m16.9988 33.2c8.947 0 16.2-7.253 16.2-16.2 0-8.94702-7.253-16.200012-16.2-16.200012-8.94698 0-16.199972 7.252992-16.199972 16.200012 0 8.947 7.252992 16.2 16.199972 16.2z" fill="#ff0420"/><g fill="#fff"><path d="m12.2728 21.2961c-.8429.036-1.6747-.2029-2.37-.6806-.3004-.2295-.54038-.5287-.69919-.8717s-.23166-.7195-.21226-1.097c.0037-.22.02403-.4394.06081-.6563.10535-.5842.25522-1.2851.44962-2.1025.55102-2.2282 1.97282-3.3423 4.26562-3.3423.5747-.0094 1.1453.0981 1.6771.3161.4721.185.8783.5066 1.1667.9236.2908.4297.4394.9399.4249 1.4586-.0042.2159-.0245.4311-.0608.644-.1216.7211-.2674 1.422-.4374 2.1025-.2833 1.1099-.7734 1.9404-1.4705 2.4914-.6963.5428-1.6279.8142-2.7946.8142zm.1702-1.7501c.4209.0116.8316-.131 1.1547-.401.3571-.3239.6-.7544.6926-1.2275.1865-.7613.3281-1.4257.425-1.9931.0326-.1723.0488-.3473.0486-.5227 0-.7374-.3849-1.106-1.1545-1.1058-.4243-.0102-.8383.1321-1.1667.401-.3504.3273-.5887.7568-.6806 1.2275-.1459.5428-.2917 1.2072-.4374 1.9931-.033.1681-.0493.3391-.0486.5104 0 .7454.389 1.1181 1.1669 1.1181z"/><path d="m17.596 21.1748c-.0386.0023-.0772-.0042-.1129-.0189-.0358-.0147-.0678-.0373-.0937-.0661-.0404-.0653-.0535-.1439-.0364-.2188l1.6771-7.8998c.0149-.0871.0624-.1654.1328-.2188.0652-.0537.1467-.0837.2311-.085h3.2328c.7611-.0373 1.5156.1576 2.1634.5591.2663.1744.4826.4152.6275.6987.1449.2834.2135.5998.1989.9178-.0011.2127-.0256.4247-.073.6321-.134.8188-.5724 1.5568-1.2275 2.0661-.6076.4457-1.4421.6685-2.5035.6685h-1.6405l-.559 2.6616c-.0149.0871-.0624.1654-.1328.2188-.0651.0537-.1464.0836-.2308.085zm4.3023-4.6428c.3185.0071.6304-.0911.8873-.2793.2644-.1942.4465-.4803.5105-.8021.0225-.1202.0347-.2422.0363-.3646.0069-.0989-.008-.198-.0437-.2904-.0357-.0925-.0913-.1759-.1629-.2445-.2028-.1497-.4539-.219-.7048-.1944h-1.4583l-.4618 2.1753z"/></g></g></svg>