<svg fill="none" height="29" viewBox="0 0 127 29" width="127" xmlns="http://www.w3.org/2000/svg" xmlns:xlink="http://www.w3.org/1999/xlink"><clipPath id="a"><path d="m.5.5h126v27.75h-126z"/></clipPath><g clip-path="url(#a)"><g fill="#212121"><path d="m49.7935 9.33941c.7734.46839 1.4271 1.11239 1.8436 1.99049.4755.8782.7133 1.932.7133 3.1028 0 1.171-.2378 2.1663-.7729 3.0444-.4755.8781-1.1893 1.5222-2.0813 1.9319-.8915.4684-1.9623.7026-3.0921.7026-.6537 0-1.2484-.1172-1.843-.3513-.5947-.1756-1.1298-.527-1.5463-.9366v6.0883h-3.4484v-16.04092h2.9729l.2973 1.28802c1.308-1.05386 2.7351-1.58073 4.2218-1.58073 1.0106 0 1.9622.23417 2.7351.76104zm-1.9027 7.25959c.5947-.5269.8921-1.2296.8921-2.1077s-.2974-1.5806-.8325-2.1661-1.2489-.8196-2.0218-.8196c-.6542 0-1.2489.117-1.7244.4098-.4756.2341-.8325.644-1.1298 1.1709v2.6344c.1782.527.5351.9367.9516 1.2295.4755.2927 1.0106.4683 1.6649.4683.892 0 1.6053-.2927 2.1999-.8195z"/><path d="m54.3725 11.3873c.5351-.8196 1.2484-1.52213 2.2-1.99051.9516-.46834 2.0218-.76105 3.2111-.76105 1.1894 0 2.2596.23417 3.2107.76105.892.46838 1.6058 1.17091 2.1409 2.04911.5351.8781.7729 1.8149.7729 2.9272 0 1.1124-.2378 2.0491-.7729 2.9272s-1.1894 1.5806-2.1409 2.0491c-.8921.4683-2.0213.761-3.2107.761-1.1893 0-2.2595-.2341-3.2111-.7025s-1.6649-1.1123-2.2-1.9906c-.4755-.8781-.7729-1.8734-.7729-3.0442 0-1.1123.2974-2.1076.7729-2.9858zm3.5085 5.0933c.4755.5855 1.1298.8197 1.9026.8197.7729 0 1.4271-.2927 1.9027-.8197.4755-.5269.7138-1.288.7138-2.1075 0-.8781-.2383-1.5807-.7138-2.1076-.5351-.5855-1.1298-.8782-1.9622-.8782-.7729 0-1.3676.2927-1.9027.8197-.4755.5854-.7138 1.288-.7138 2.1661 0 .8195.2383 1.5222.7734 2.1075z"/><path d="m71.4977.557251v19.261149h-3.4489v-19.261149z"/><path d="m85.6497 9.16296-7.0164 15.80724h-3.3298l2.616-5.679-4.9947-10.12824h3.9245l2.8542 6.32274 2.8542-6.32274z"/><path d="m98.8504 9.16262v10.65508c0 .9952-.2973 1.9319-.892 2.7516s-1.3676 1.4639-2.3787 1.9319c-1.0107.4685-2.0809.7028-3.2702.7028-.892 0-1.6649-.1174-2.3192-.293-.6542-.2343-1.1893-.4685-1.6053-.7023-.4755-.2929-.9516-.6441-1.4867-1.1126l2.0218-2.3417c.4756.4684 1.0107.8197 1.4867 1.0539.4756.2338 1.1298.4099 1.8431.4099.892 0 1.6053-.2343 2.2-.6441.5947-.4099.892-1.0538.892-1.8149v-1.5222c-.3564.5269-.8324.9953-1.5457 1.3465-.7138.3513-1.5463.5269-2.4973.5269-.9516 0-1.9032-.2341-2.7357-.761-.8324-.4685-1.4861-1.171-2.0218-2.0491-.4755-.8781-.7728-1.8148-.7728-2.8686 0-1.0539.2377-2.0491.7728-2.9273.5357-.8782 1.1894-1.58068 2.0814-2.10761.8324-.52688 1.7245-.76105 2.6761-.76105.8914 0 1.6648.11708 2.3781.35125s1.249.58548 1.6053.99527l.357-.81964zm-3.5085 6.55708v-2.6346c-.2377-.5269-.5947-.9367-1.1298-1.2295-.5351-.2927-1.1297-.4683-1.843-.4683-.8325 0-1.5463.2927-2.141.8197-.5941.5268-.892 1.2294-.892 2.1075 0 .8197.2979 1.5808.892 2.1661.5947.5855 1.3085.8783 2.141.8783 1.3675-.0586 2.3781-.5855 2.9728-1.6392z"/><path d="m101.705 11.3885c.536-.8782 1.249-1.52221 2.2-2.04909.952-.46833 2.022-.76104 3.212-.76104 1.189 0 2.259.23417 3.211.76104.892.46839 1.605 1.17089 2.14 2.04909.476.8782.773 1.8148.773 2.9272 0 1.1123-.238 2.0491-.773 2.9272-.475.8781-1.189 1.5808-2.14 2.049-.892.4685-2.022.7611-3.211.7611-1.19 0-2.26-.2342-3.212-.7025-.951-.4684-1.664-1.1123-2.2-1.9904-.535-.8783-.772-1.8735-.772-3.103 0-.9952.237-1.9904.772-2.8686zm3.449 5.0933c.476.5855 1.13.8197 1.903.8197s1.427-.2928 1.903-.8197.714-1.288.714-2.1075c0-.8783-.238-1.5808-.714-2.1076-.476-.527-1.13-.8197-1.903-.8197s-1.367.2927-1.903.8197c-.535.5268-.772 1.2879-.772 2.1076.059.8195.297 1.522.772 2.1075z"/><path d="m125.431 9.51392c.714.58538 1.01 1.34648 1.069 2.28318v8.0206h-3.507v-6.7326c-.06-1.0538-.595-1.5807-1.606-1.5807-.773 0-1.426.3512-1.903 1.1123-.475.7611-.713 1.6978-.713 2.8102v4.3908h-3.449v-10.65508h3.152l.238 1.69778c.416-.7025.951-1.22939 1.665-1.63924.713-.40979 1.546-.58542 2.497-.58542 1.01 0 1.902.29271 2.557.87818z"/></g><path d="m24.8201 8.98785c-.5947-.35125-1.3678-.35125-2.0218 0l-4.6381 2.69305-3.1515 1.7563-4.638 2.6931c-.59462.3512-1.36765.3512-2.02169 0l-3.68669-2.1077c-.59462-.3512-1.01084-.9951-1.01084-1.6977v-4.15669c0-.7025.3568-1.34651 1.01084-1.69776l3.62722-2.04902c.59463-.3513 1.3676-.3513 2.02166 0l3.6273 2.04902c.5945.35125 1.0107.99526 1.0107 1.69776v2.69309l3.1515-1.8149v-2.69304c0-.70255-.3567-1.34651-1.0108-1.69776l-6.7192-3.863924c-.59462-.351304-1.36765-.351304-2.02169 0l-6.83816 3.863924c-.654096.35125-1.01085.99521-1.01085 1.69776v7.78644c0 .7025.356754 1.3465 1.01085 1.6978l6.83816 3.8639c.59457.3512 1.3676.3512 2.02169 0l4.638-2.6346 3.1515-1.8148 4.6381-2.6345c.5946-.3512 1.3676-.3512 2.0218 0l3.6271 2.0491c.5947.3512 1.0107.9952 1.0107 1.6977v4.1566c0 .7027-.3564 1.3466-1.0107 1.6978l-3.6271 2.1079c-.5947.3512-1.3678.3512-2.0218 0l-3.6272-2.0492c-.5946-.3512-1.0109-.9954-1.0109-1.6979v-2.693l-3.1515 1.8149v2.6929c0 .7028.3568 1.3464 1.0108 1.698l6.8382 3.8637c.5946.3511 1.3677.3511 2.0215 0l6.8382-3.8637c.5947-.3516 1.0112-.9952 1.0112-1.698v-7.7863c0-.7025-.3569-1.3465-1.0112-1.6977z" fill="#8247e5"/></g></svg>