<svg fill="none" height="32" viewBox="0 0 125 32" width="125" xmlns="http://www.w3.org/2000/svg"><path d="m31.6664 15.124c-.0577-1.084-.2223-2.1396-.4837-3.1556-.1559-.6075-.3464-1.2008-.5696-1.7777-1.1206-2.90359-3.0572-5.39559-5.5251-7.18759-1.6175-1.17555-3.4634-2.050221-5.4577-2.543555-1.213-.300444-2.4807-.459555-3.7852-.459555-1.3046 0-2.5722.159111-3.7852.459555-1.9943.493334-3.84027 1.368445-5.45779 2.543555-2.46787 1.79245-4.40449 4.284-5.52509 7.18759-.222707.5769-.413728 1.1702-.569538 1.7777-.261443 1.016-.4260562 2.0716-.4837147 3.1556-.01584506.2902-.0237673.5822-.0237673.876 0 .3027.008363.6031.0250884.9018.0576584 1.0524.2161086 2.0782.4661086 3.0666.15361.6072.341549 1.2005.562063 1.7778 1.11663 2.9307 3.06294 5.4454 5.54885 7.2507 1.61752 1.1751 3.46349 2.0502 5.45779 2.5435 1.213.3005 2.4806.4596 3.7852.4596 1.3045 0 2.5722-.1591 3.7852-.4596 1.9943-.4933 3.8402-1.368 5.4577-2.5435 2.4859-1.8053 4.4323-4.32 5.5493-7.2507.2205-.5773.408-1.1706.5616-1.7778.25-.9884.4085-2.0142.4662-3.0666.0167-.2987.025-.5991.025-.9018 0-.2938-.0079-.5858-.0237-.876z" fill="#000"/><g fill="#fff"><path d="m10.9586 15.2142 4.1083-4.1485c.3437-.3471.3437-.9097 0-1.25684-.3438-.34711-.901-.34711-1.2448 0l-4.10823 4.14844c-.34375.3471-.34375.9098 0 1.2569.34373.3471.90093.3471 1.24473 0z"/><path d="m20.6688 16.7227-4.1083 4.1484c-.3437.3471-.3437.9098 0 1.2569.3438.3471.901.3471 1.2448 0l4.1082-4.1484c.3438-.3471.3438-.9098 0-1.2569-.3433-.3471-.9009-.3471-1.2447 0z"/><path d="m21.1362 9.40041-11.82663 11.94219c-.34375.3471-.34375.9098 0 1.2569s.90093.3471 1.24473 0l11.8266-11.9422c.3437-.3471.3437-.90978 0-1.25689-.3438-.34711-.901-.34711-1.2447 0z"/></g><g fill="#000"><path d="m48.1276 3.49111c.6514.30223 1.1575.73334 1.5097 1.29334.3521.56.5281 1.21778.5281 1.98222 0 .75555-.176 1.41333-.5281 1.97333-.3522.56445-.8583.99556-1.5097 1.2933-.6514.2978-1.4217.4489-2.3108.4489h-1.9322c-.0484 0-.088.04-.088.0889v2.6578c0 .0489-.0396.0889-.088.0889h-2.1391c-.0484 0-.0881-.04-.0881-.0889v-10.10223c0-.04889.0397-.08889.0881-.08889h4.2473c.8847 0 1.655.15111 2.3108.45333zm-.8539 4.59111c.3609-.30666.5458-.74666.5458-1.31555 0-.57778-.1805-1.02222-.5458-1.32889-.3609-.30667-.8935-.46222-1.5889-.46222h-1.8002c-.0484 0-.088.04-.088.08889v3.39111c0 .04889.0396.08889.088.08889h1.8002c.6998 0 1.228-.15556 1.5889-.46223z"/><path d="m60.5432 10.1c-.0308-.0444-.0132-.10666.0352-.13333.6118-.29333 1.0871-.70222 1.4304-1.22667.3565-.55111.537-1.21333.537-1.97333 0-.76444-.1761-1.42667-.5282-1.98222-.3521-.56-.8582-.98667-1.5096-1.29334-.6559-.30222-1.4261-.45333-2.3152-.45333h-4.2473c-.0485 0-.0881.04-.0881.08889v1.76c0 .04889.0396.08889.0881.08889h2.2315.4753 1.4129c.6954 0 1.2236.15555 1.5889.46222.3609.30667.5458.75111.5458 1.32889 0 .56889-.1805 1.00889-.5458 1.32-.3609.31556-.8935.47111-1.5889.47111h-1.4129-.4753-2.2315c-.0485 0-.0881.04-.0881.08889v4.58223c0 .0489.0396.0889.0881.0889h2.1434c.0485 0 .0881-.04.0881-.0889v-2.6845c0-.0488.0396-.0888.088-.0888h1.9278.066c.0308 0 .0572.0133.0749.04l1.8794 2.7866c.0176.0222.044.04.0748.04h2.2755c.0704 0 .1144-.08.0704-.1378z"/><path d="m48.0346 23.66h1.9411c.0484 0 .088.04.088.0889v4.04c0 .0267-.0132.0533-.0352.0711-.537.4089-1.1532.72-1.853.9422-.7174.2267-1.4349.3378-2.1611.3378-1.0387 0-1.9762-.2267-2.8037-.6844-.8275-.4578-1.4789-1.0889-1.9542-1.8934-.471-.8089-.7086-1.7244-.7086-2.7422s.2376-1.9333.7086-2.7378c.4709-.8089 1.1267-1.44 1.9674-1.8933s1.7826-.6844 2.8345-.6844c.8759 0 1.6726.1511 2.39.4533.6866.2933 1.272.7111 1.7473 1.2578.0308.0355.0264.0889-.0044.1244l-1.3644 1.2933c-.0352.0356-.088.0312-.1232-.0044-.7043-.7289-1.5449-1.0978-2.5308-1.0978-.6383 0-1.206.1378-1.7034.4134-.4974.2755-.8803.6622-1.1576 1.16-.2773.4977-.4137 1.0711-.4137 1.72 0 .6355.1364 1.2044.4137 1.7022s.6602.8889 1.1532 1.1689 1.0519.4177 1.6813.4177c.6471 0 1.2324-.1377 1.7562-.4133.0308-.0133.0484-.0444.0484-.08v-2.8711c-.0044-.0489.0352-.0889.0836-.0889z"/><path d="m81.0497 13.1044c-.5457-.2488-.9947-.6-1.3512-1.0533-.0264-.0311-.0264-.08 0-.1111l1.1708-1.4444c.0352-.0445.1012-.0445.1364 0 .5282.6933 1.1268 1.04 1.7958 1.04.9463 0 1.4173-.5689 1.4173-1.70226v-4.8c0-.04889-.0396-.08889-.0881-.08889h-3.345c-.0485 0-.0881-.04-.0881-.08889v-1.72889c0-.04889.0396-.08889.0881-.08889h5.647c.0484 0 .088.04.088.08889v6.57778c0 1.26225-.3037 2.20885-.9155 2.83995-.6118.6312-1.5053.9467-2.6893.9467-.6778.0045-1.2984-.1289-1.8662-.3867z"/><path d="m67.5548 18.6778h2.1435c.0484 0 .088.04.088.0889v8.1644c0 .0489.0397.0889.0881.0889h4.8459c.0484 0 .088.04.088.0889v1.76c0 .0489-.0396.0889-.088.0889h-7.1655c-.0484 0-.088-.04-.088-.0889v-10.1022c0-.0489.0396-.0889.088-.0889z"/><path d="m119.333 4.97556h-3.028c-.049 0-.088-.04-.088-.08889v-1.76c0-.04889.039-.08889.088-.08889h8.552c.048 0 .088.04.088.08889v1.76c0 .04889-.04.08889-.088.08889h-3.028c-.049 0-.088.04-.088.08889v8.16445c0 .0489-.04.0889-.088.0889h-2.144c-.048 0-.088-.04-.088-.0889v-8.16445c0-.04889-.04-.08889-.088-.08889z"/><path d="m109.685 25.3444v3.5289c0 .0489-.04.0889-.088.0889h-2.143c-.049 0-.088-.04-.088-.0889v-3.56c0-.0178-.005-.0311-.014-.0444l-3.785-6.4534c-.035-.0578.009-.1333.075-.1333h2.258c.031 0 .062.0178.075.0444l2.575 4.3956c.035.0578.118.0578.149 0l2.575-4.3956c.018-.0266.044-.0444.075-.0444h2.068c.067 0 .111.0755.075.1333l-3.802 6.4845c0 .0089-.005.0266-.005.0444z"/><path d="m67.929 12.8022c-.8363-.4622-1.4877-1.0933-1.9587-1.9022-.4709-.8089-.7086-1.71557-.7086-2.72446s.2377-1.91555.7086-2.72444c.471-.80889 1.1268-1.44 1.9587-1.90223.8362-.45777 1.7737-.68888 2.8125-.68888 1.0387 0 1.9762.23111 2.8037.68888.8318.46223 1.4832 1.09334 1.9586 1.90223s.7174 1.71555.7174 2.72444-.2376 1.91556-.7174 2.72446c-.4754.8089-1.1312 1.44-1.9586 1.9022-.8319.4622-1.765.6889-2.8037.6889-1.0388.0044-1.9763-.2267-2.8125-.6889zm4.4146-1.7555c.4753-.28.8495-.6667 1.1223-1.16894.2729-.50222.4094-1.06666.4094-1.70222 0-.63555-.1365-1.20444-.4094-1.70222-.2728-.49778-.647-.88889-1.1223-1.16889-.4754-.28-1.0123-.41778-1.6021-.41778s-1.1268.13778-1.6021.41778c-.4754.28-.8495.66667-1.1224 1.16889-.2729.49778-.4093 1.06667-.4093 1.70222 0 .63556.1364 1.20445.4093 1.70222.2729.49774.647.88894 1.1224 1.16894.4753.28 1.0123.4177 1.6021.4177.5898.0045 1.1267-.1377 1.6021-.4177z"/><path d="m59.338 18.6778h-2.1743c-.0352 0-.066.0222-.0792.0533l-4.3882 10.1023c-.0264.0577.0176.1244.0792.1244h2.1831c.0352 0 .066-.0222.0836-.0533l.8671-2.1467.7439-1.8044 1.5052-3.7334c.0309-.0755.1321-.0755.1629 0l1.5053 3.7334.7306 1.8044.8627 2.1467c.0132.0355.044.0533.0836.0533h2.2403c.0616 0 .1057-.0667.0793-.1244l-4.4015-10.1023c-.0176-.0311-.0528-.0533-.0836-.0533z"/><path d="m91.7803 11.4956v1.7333c0 .0489.0396.0889.088.0889h7.5792c.0484 0 .088-.04.088-.0889v-1.7333c0-.0489-.0396-.0889-.088-.0889h-5.3653-2.2139c-.0484 0-.088.04-.088.0889z"/><path d="m99.5355 4.82889v-1.70222c0-.04889-.0396-.08889-.088-.08889h-7.5792c-.0484 0-.088.04-.088.08889v1.70667c0 .04889.0396.08889.088.08889h7.5792c.0484-.00445.088-.04445.088-.09334z"/><path d="m91.7803 7.27334v1.65778c0 .04888.0396.08888.088.08888h7.588c.0484 0 .0881-.04.0881-.08888v-1.65778c0-.04889-.0397-.08889-.0881-.08889h-7.588c-.0484 0-.088.04-.088.08889z"/><path d="m84.3995 18.6778h-2.1743c-.0352 0-.066.0222-.0792.0533l-4.3882 10.1023c-.0264.0577.0176.1244.0792.1244h2.1831c.0353 0 .0661-.0222.0837-.0533l.867-2.1467.7439-1.8044 1.5053-3.7334c.0308-.0755.132-.0755.1628 0l1.5053 3.7334.7306 1.8044.8627 2.1467c.0132.0355.044.0533.0836.0533h2.2404c.0616 0 .1056-.0667.0792-.1244l-4.4014-10.1023c-.0176-.0311-.0484-.0533-.0837-.0533z"/><path d="m106.028 12.8111c-.823-.4533-1.474-1.0889-1.945-1.8933-.471-.8089-.709-1.72004-.709-2.73781 0-1.01778.238-1.93334.709-2.73778.471-.80889 1.122-1.44 1.945-1.89334.828-.46222 1.752-.68888 2.786-.68888.867 0 1.655.15555 2.355.47111.673.30222 1.246.72889 1.712 1.28444.031.03556.026.08889-.009.12445l-1.36 1.28888c-.035.03556-.092.03111-.127-.00444-.669-.75556-1.488-1.13333-2.461-1.13333-.62 0-1.175.13777-1.659.41777-.489.28-.867.66667-1.136 1.16889-.273.49778-.409 1.06667-.409 1.70223 0 .63555.136 1.20444.409 1.70222.273.49779.652.88889 1.136 1.16889.488.28 1.039.4178 1.659.4178.973 0 1.792-.3822 2.461-1.1467.035-.04.092-.04.127-.0089l1.36 1.2889c.035.0311.04.0845.009.12-.466.5645-1.043 1-1.721 1.3022-.704.3111-1.492.4711-2.359.4711-1.026 0-1.945-.2311-2.773-.6844z"/><path d="m94.492 20.2378-1.0519-1.52c-.0176-.0222-.044-.04-.0704-.04h-2.4164c-.0704 0-.1145.08-.0704.1422l2.1787 3.1245c.0352.0489.1056.0489.1408.0044l1.294-1.6044c.0176-.0267.0176-.0711-.0044-.1067z"/><path d="m98.1581 25.5044-1.272 1.6312c-.0221.0311-.0265.0711-.0044.1066l1.1399 1.6845c.0176.0222.044.04.0748.04h2.4606c.07 0 .114-.08.07-.1422l-2.3281-3.3112c-.0308-.0533-.1012-.0577-.1408-.0089z"/><path d="m96.9919 23.6422 3.3931-4.8222c.04-.0578 0-.1422-.07-.1422h-2.2888c-.0308 0-.0572.0133-.0748.04l-2.2315 3.2933c0 .0045-.0044.0045-.0044.0045l-1.4129 1.7111-.0044.0044-3.6048 5.0845c-.0396.0578 0 .1422.0705.1422h2.4428c.0308 0 .0572-.0133.0748-.04l2.3459-3.5289.0044-.0044z"/></g></svg>