<svg fill="none" height="39" viewBox="0 0 128 39" width="128" xmlns="http://www.w3.org/2000/svg" xmlns:xlink="http://www.w3.org/1999/xlink"><clipPath id="a"><path d="m0 0h128v38.5068h-128z"/></clipPath><g clip-path="url(#a)"><path d="m13.7776 38.5023c-.4857-.1192-.9759-.2249-1.4548-.3598-2.0322-.6068-3.90605-1.6531-5.4888-3.0648-1.93377-1.6662-3.63594-3.5303-4.89964-5.7698-1.066202-1.8657-1.668489-3.9602-1.756134-6.1072-.1349149-3.2581-.1169263-6.5208-.029232-9.7745.076452-3.1345 1.279436-5.89576 3.303156-8.2815 1.9868-2.38645 4.70859-4.04704 7.73955-4.722001 1.6258-.3665173 3.256-.3552744 4.8929-.281072 1.9888.080566 3.9333.611855 5.6867 1.553763 3.8225 2.05969 6.233 5.21894 7.1752 9.46871.2387 1.0891.3243 2.2062.2541 3.3189-.1314 1.6017.1255 3.2115.7487 4.6928.4256 1.0059 1.1604 1.8501 2.0979 2.4105.1798.118.3827.1965.5951.2302.2125.0338.4296.022.6372-.0346.0539-.0158.1101-.027.1641-.0382.7196-.1529 1.0366.0697 1.1243.7937.1282.9646.0787 1.909-.371 2.7927-.5936 1.1625-1.619 1.7202-2.8445 1.9765-.4497.0945-.9286.1237-1.3806.2249-.7291.1658-1.3791.5771-1.8412 1.1649-.4621.5877-.7083 1.3164-.6974 2.064 0 1.9765-1.1108 3.4111-2.9704 3.8226-.4497.1012-.9331.0517-1.3919.1484-1.2209.2564-2.2485.8252-2.6982 2.0237-.3486.9197-1.0276 1.2727-1.8596 1.5088-.3373.0967-.6926.108-1.0231.2249zm-12.985514-20.2664c.049468 1.2749-.049469 2.8737.044971 4.4747.037543.7615.117114 1.5205.238353 2.2733.2608 1.4646.78576 2.8695 1.54926 4.1463.57075.9852 1.23327 1.9142 1.97875 2.7748.77738.8969 1.61344 1.7412 2.50266 2.5274 1.11458.9838 2.36578 1.801 3.71462 2.4262 1.444.6644 3.0072 1.0307 4.5961 1.077.7177.0159 1.4351-.0429 2.1406-.1754.4586-.0413.9077-.1544 1.3312-.335.2811-.1484.5981-.2586.7195-.6139.4835-1.4098 1.5178-2.2193 2.9029-2.6375.5757-.1732 1.185-.1462 1.7652-.2496 1.4211-.2586 2.1788-1.1558 2.4397-2.5387.0989-.5126.0247-1.0388.1596-1.5537.1211-.5136.3424-.9981.651-1.426.3087-.428.6988-.7908 1.1479-1.0677.697-.434 1.4773-.5351 2.2643-.6431.787-.1079 1.5245-.3485 2.0957-.8994.8117-.7983 1.0321-1.8146.8859-2.9232-.063-.4946-.0967-.4924-.6026-.3935-.3528.0989-.7277.0856-1.0726-.0382-1.1471-.4904-2.0876-1.365-2.66-2.4734-.7088-1.3729-1.0774-2.8959-1.0749-4.4409-.0135-.5577.0158-1.1243.0405-1.6775.0207-.8103-.0548-1.6202-.2248-2.4127-.2632-1.3487-.7383-2.6472-1.4076-3.8473-1.1033-1.98868-2.7014-3.65876-4.6396-4.84846-1.9382-1.18971-4.1508-1.858715-6.4234-1.942229-1.2317-.07676-2.468-.028544-3.6899.143908-1.1643.176421-2.29901.510791-3.37289.993871-1.74517.78503-3.3017 1.93517-4.56461 3.37286-.66921.74084-1.25719 1.5512-1.75388 2.41721-1.10942 1.95791-1.688411 4.17154-1.679686 6.42194-.002248 1.2547-.002248 2.5094-.002248 4.0879z" fill="#212d47"/><path d="m.791098 18.236c0-1.574 0-2.8332 0-4.0879-.00804-2.2506.571732-4.46426 1.681932-6.42196.49501-.86737 1.08148-1.67924 1.74939-2.42171 1.26404-1.43362 2.82049-2.57987 4.5646-3.36162 1.07388-.48307 2.20858-.81744 3.37288-.993867 1.2219-.172453 2.4582-.220669 3.6899-.143909 2.9731.109258 5.8221 1.219216 8.0855 3.150016 2.2634 1.93079 3.8086 4.5693 4.3851 7.48795.1701.7926.2455 1.6024.2248 2.4127-.0247.5599-.0539 1.1243-.0404 1.6775-.0026 1.545.366 3.068 1.0748 4.4409.5724 1.1085 1.5129 1.983 2.66 2.4734.3449.1238.7198.1372 1.0726.0383.5059-.099.5397-.1012.6026.3935.1462 1.0973-.0742 2.1136-.8859 2.9231-.5712.5622-1.3154.805-2.0957.8994-.7802.0945-1.574.2092-2.2643.6431-.4491.277-.8392.6398-1.1478 1.0677-.3087.4279-.5299.9125-.6511 1.426-.1349.5149-.0607 1.0411-.1596 1.5538-.2608 1.3828-1.0186 2.28-2.4397 2.5386-.5801.1034-1.1895.0765-1.7651.2496-1.3852.4182-2.4195 1.2277-2.9029 2.6376-.1215.3552-.4498.4654-.7196.6138-.4206.1798-.8667.2928-1.3221.3351-.7056.1324-1.423.1912-2.1407.1754-1.5889-.0463-3.1521-.4127-4.5961-1.0771-1.35083-.6269-2.60359-1.4464-3.71911-2.433-.88922-.7861-1.72528-1.6305-2.50266-2.5274-.74547-.8605-1.408-1.7895-1.97874-2.7747-.76351-1.2768-1.28847-2.6818-1.54927-4.1464-.121237-.7528-.200808-1.5117-.23835-2.2733-.09444-1.601.004497-3.1997-.044972-4.4746zm12.924802-16.41236c-.7009-.00249-1.3997.07674-2.0822.2361-2.79037.59539-5.28662 2.14322-7.0605 4.37797-1.80398 2.15178-2.78707 4.87319-2.77474 7.68109v7.0785c0 .8433.02698 1.682.10343 2.5229.15456 1.6815.66832 3.3102 1.50655 4.776 1.26673 2.1734 2.93565 4.0857 4.91763 5.6349 2.40143 1.9338 5.09973 3.0289 8.24773 2.741.5965-.0326 1.1861-.143 1.7539-.3283.1015-.0131.1969-.056.2741-.1233.0772-.0672.1328-.1557.1599-.2544.2153-.5502.5396-1.0511.9534-1.4728 1.1378-1.1963 2.5813-1.664 4.1823-1.7517.3486-.0029.6885-.1083.9776-.303s.5145-.4701.6482-.792c.1534-.3721.2298-.7714.2248-1.1738.0117-.6795.1605-1.3496.4376-1.9701.277-.6206.6766-1.1787 1.1746-1.6411.7189-.6497 1.6067-1.0831 2.5612-1.2502.3327-.0405.6745-.0674.9983-.1282 1.0726-.2001 1.8304-.697 1.9968-1.8483.0337-.2248 0-.2901-.2451-.2968-.2612.0023-.5205-.0442-.7646-.1372-1.1917-.4971-2.2036-1.3459-2.9006-2.4329-1.0681-1.646-1.4346-3.4876-1.5133-5.3966-.0247-.5711.0225-1.14.0405-1.7112.0183-.9287-.0915-1.8556-.3261-2.7545-.6299-2.61208-2.1156-4.93839-4.2205-6.60851-1.5979-1.30069-3.5064-2.16387-5.5383-2.50491-.658-.14037-1.3314-.19479-2.0035-.1619-.5756-.03851-1.1531-.04076-1.7291-.00674z" fill="#364159"/><path clip-rule="evenodd" d="m64.8878 12.2007c.0194.2871-.0535.5728-.208.8155-.1545.2428-.3826.4297-.6509.5336-.2584.1136-.5378.1711-.82.1687-.2821-.0023-.5606-.0644-.817-.1822-.2673-.1191-.4903-.3194-.6373-.5725-.1469-.2531-.2103-.5461-.1812-.8373.0345-.3145.1713-.609.3895-.8381.2182-.2292.5056-.3803.818-.4301.4425-.0989.9054-.0475 1.3154.1461.2362.0978.4377.2639.5788.4771.141.2131.2151.4636.2127.7192zm8.5871-.0045c-.036.8927.6431 1.52 1.6572 1.52.169.0081.3383-.0109.5014-.0562.3055-.056.5842-.211.793-.441.2088-.2299.3363-.5222.3628-.8317.0311-.3244-.0533-.6494-.2385-.9176-.1851-.2683-.459-.4625-.7734-.5484-.4657-.1564-.9724-.138-1.4256.0517-.2536.09-.4735.2554-.6303.4741-.1568.2186-.2428.4801-.2466.7491zm-32.2285 7.8857h1.3491c.1304 0 .2249 0 .2384.1844.0697 1.3874.8072 1.6932 1.7651 1.7989.3741.0548.7551.0411 1.1243-.0405.5261-.1259.9264-.3958 1.0388-.9692.0502-.2595.0214-.5282-.0829-.7711-.1042-.243-.279-.449-.5017-.5915-.4881-.2964-1.0116-.5298-1.5583-.6948-.9669-.326-1.9292-.6746-2.7882-1.23s-1.4998-1.2749-1.6819-2.316c-.2384-1.3761.2248-2.5274 1.3986-3.2379 2.1406-1.2885 4.3847-1.3784 6.5883-.1574 1.0973.6093 1.6662 1.6324 1.7471 2.9051.0113.1799-.0157.2698-.2248.2676-.5876-.0075-1.1741-.005-1.761-.0025-.2936.0012-.5872.0025-.8811.0025-.1304 0-.2249 0-.2361-.1799-.0809-.796-.5014-1.2749-1.2839-1.4143-.6161-.1102-1.2345-.0877-1.7809.29-.1554.0912-.2849.2205-.3764.3757-.0914.1552-.1418.3312-.1463.5112-.0045.1801.037.3584.1206.518.0836.1595.2065.2951.3571.394.5676.4367 1.2381.6478 1.9056.8579l.1316.0415c1.1131.371 2.2036.7893 3.0873 1.601.656.6073 1.0531 1.4438 1.1087 2.336.0557.8922-.2342 1.7716-.8096 2.4557-.6005.6558-1.4076 1.0859-2.2868 1.2187-1.6774.3193-3.3189.2474-4.8704-.5419-.6284-.2882-1.1675-.7404-1.5608-1.309-.3933-.5685-.6262-1.2325-.6743-1.9222l-.0006-.0066c-.0331-.3666-.0331-.3666.3379-.3666zm13.0148-4.5039c1.2254-1.4638 3.4493-1.1827 4.4656-.3148.6715.5791 1.1325 1.3642 1.3109 2.2328.3508 1.574.3711 3.1256-.2406 4.6321-.4812 1.1872-1.3064 2.0237-2.6285 2.2486-1.0119.1596-1.9406-.0158-2.6983-.7758-.0169-.0168-.0348-.0316-.0665-.0578-.0149-.0122-.0327-.027-.055-.0456v.3125 3.8226c0 .2249-.0404.3081-.2878.3036-.814-.0158-1.6302-.0113-2.4442 0-.1799 0-.2653-.0248-.2653-.2406v-12.7247c0-.1889.0607-.2361.2406-.2249.775.009 1.5523.009 2.3318 0 .1754 0 .2541.0405.2541.2249 0 .1083.0194.2158.0408.3348v.0001c.0151.0836.0312.1729.0424.2722zm2.6735 5.8759c-.1916.3818-.5134.6412-1.0016.6787-.5644.0428-1.0793-.0832-1.4458-.5689-.092-.1187-.1398-.2658-.1349-.4159.0044-.1891.0067-.3779.0077-.5662v-.6578c-.0001-.0169-.0001-.0338-.0002-.0508-.0004-.1399-.0008-.2795-.0008-.4184 0-.1717.0025-.3433.005-.5149.005-.3433.01-.6866-.005-1.0299-.0179-.1929.0293-.3862.134-.5492.1048-.163.261-.2863.4439-.3502.3359-.1439.6847-.2135 1.0049-.1803.5171.0512.9601.3733 1.1547 1.0864.2933 1.0518.2824 2.1652-.0315 3.211-.0348.116-.0781.2254-.1304.3264zm22.0543-4.4143v2.5724c.0131.2666.0083.5583.0032.8661v.0002c-.0089.5359-.0186 1.1205.0643 1.706.1169.9872.5846 1.7337 1.574 2.0462.9485.2776 1.9566.2776 2.9051 0 .108-.0292.1777-.0697.1777-.2068v-1.7989c.0022-.1394-.0383-.1844-.1799-.1551-.2498.0404-.5036.0495-.7555.0269-.5375-.0247-.7623-.2338-.7623-.7667-.0113-1.4409-.0113-2.8817-.0113-4.3226v-.0014c0-.1597.0563-.2091.2114-.2091h1.1243c.1731.0134.2496-.0293.2496-.2249-.0075-.3614-.005-.7237-.0025-1.0857.0012-.1809.0025-.3617.0025-.5423.0022-.1596-.0517-.2091-.2091-.2091-.1253 0-.2505-.0017-.3757-.0035-.2501-.0035-.4999-.007-.7486.0035-.1956.0068-.2541-.0562-.2541-.2541v-1.8798c.0045-.1821-.0495-.2406-.2361-.2406-.8425.0105-1.6857.0105-2.5296 0-.1979-.0022-.2496.0607-.2496.2541 0 .2091-.0013.4182-.0025.6274-.0025.4182-.005.8364.0025 1.2547.0022.1731-.054.2248-.2384.2248h-.7847c-.1619-.0157-.2092.0517-.2092.2091 0 .181.0013.3618.0025.5425v.0014c.0025.362.005.7237-.0025 1.0864-.0022.1866.0787.2248.2519.2248.0809 0 .162.0018.2432.0035.1626.0035.3256.007.4876-.0035.1978-.0112.2518.0585.2518.2541zm-9.4381-1.194.0427-.0578c.1484-.2009.2798-.3787.4317-.5471.6319-.6746 1.4256-.7915 2.2958-.6296.1215.0225.1462.0877.1417.1934l-.011.4892c-.0147.6509-.0295 1.3018-.0385 1.9527 0 .1486-.0701.1453-.1722.1405l-.0234-.0011c-.4279-.0472-.8593-.0539-1.2884-.0202-.2888.0324-.5668.1284-.814.2811-.1627.0918-.2969.2266-.3882.3896-.0912.163-.1358.3479-.129.5345.0107.9417.0101 1.8839.0095 2.8262-.0006.8375-.0012 1.675.0062 2.512 0 .2788-.0809.3372-.344.3327-.5306-.0119-1.0612-.0079-1.5919-.004h-.0001c-.2653.002-.5306.004-.796.004-.1821 0-.2653-.0269-.2653-.2383v-9.0438c0-.1888.0585-.2361.2406-.2248h2.3295c.1709 0 .2429.0382.2653.2248.0003.2981.0335.5952.099.886zm-4.7913 8.1264v-4.4657-4.5219c0-.2136-.0607-.2631-.2676-.2631h-2.5004c-.1956-.0022-.2541.0518-.2541.2496v9.0191c0 .1978.063.2495.2541.2495h2.5027c.2113.0045.2653-.0562.2653-.2675zm8.8849-4.495v-4.4657c0-.2361.0652-.2945.2968-.2923.823.0158 1.6482.0113 2.4734 0 .1957 0 .2541.054.2541.2519v9.0167c0 .2002-.0652.2519-.2563.2496h-2.5004c-.2136 0-.2676-.0584-.2654-.2676.0014-.8877.0003-1.7844-.0008-2.6826v-.0022-.0022-.0021c-.0007-.6012-.0014-1.2031-.0014-1.8035z" fill="#54d785" fill-rule="evenodd"/><path clip-rule="evenodd" d="m85.8278 20.0793h-.0001-.0001-.0001-.0001-.0001c-.3118.0026-.6248.0052-.9391-.0131-.2383-.0112-.3058.0742-.2878.2991.1417 1.6572 1.0164 2.7995 2.4847 3.4561 1.4683.6565 3.0041.715 4.5623.4317.9198-.1263 1.7642-.5768 2.3813-1.2705.2904-.3585.5069-.771.637-1.2137s.1713-.9067.1211-1.3654c-.0502-.4586-.1907-.9028-.4134-1.3069-.2228-.4041-.5234-.76-.8844-1.0473-.9017-.7196-1.9562-1.1198-3.0378-1.4728-.6604-.1762-1.2877-.4587-1.8573-.8365-.6746-.5059-.6746-1.3334.0359-1.8214.434-.3013.922-.3238 1.4234-.3238.8275.0158 1.5987.5285 1.6302 1.4706.0045.1169.045.1687.1664.1687h2.7815c.1282.0022.1686-.0383.1686-.1822-.0128-.5402-.1484-1.0703-.3966-1.5503s-.6024-.8972-1.0357-1.2199c-.7963-.5853-1.7436-.9302-2.7298-.9939-1.2904-.1451-2.5954.0836-3.7596.6588-1.4908.7511-2.1766 2.2194-1.7674 3.7597.2541.9623.9085 1.6167 1.7202 2.1294.8769.5441 1.8528.8836 2.8264 1.2187.5114.1573.9987.3843 1.4481.6746.2198.141.3914.3457.4918.5867.1004.2411.125.507.0704.7624-.081.5217-.4452.7982-.9287.9422-.3728.0953-.7597.1227-1.1423.0809-1.2052-.0877-1.7583-.6229-1.846-1.7989-.0203-.1843-.0877-.2248-.2451-.2248h-1.3492c-.1094 0-.2189.0009-.3286.0018zm41.7712 2.0557c.161-.4362.293-.8823.396-1.3357l.005-2.6915c-.031-.1125-.06-.2248-.088-.3366v-.0004c-.059-.2299-.116-.4578-.194-.6816-.429-1.2097-1.155-2.1362-2.468-2.424-1.181-.2743-2.274-.1169-3.133.85-.013.027-.047.027-.078.027-.007-.062-.015-.1238-.023-.185v-.0001-.0001-.0001c-.019-.1407-.037-.2784-.038-.4084-.002-.1866-.077-.2248-.238-.2248h-2.332c-.198-.0023-.254.0584-.254.2541v12.6954c0 .1979.058.2541.254.2541.826-.012 1.65-.012 2.473 0 .209.0023.268-.0562.268-.2676v-3.8495-.2654c.07-.0114.099.0206.123.0485l.006.0066.008.0079c.751.7555 1.675.9129 2.673.7555 1.325-.2046 2.119-1.0591 2.64-2.2283zm-5.446-2.1521v-.0003-.0004-.0004-.0004c-.002-.1716-.004-.3434-.004-.5155v-1.4773c-.013-.14.003-.2811.046-.4148.044-.1337.114-.2572.206-.3631.093-.1059.206-.192.332-.2531.127-.0611.265-.0958.405-.1023 1.01-.1484 1.543.2069 1.786 1.2008.234.9684.223 1.9802-.032 2.9434-.12.4852-.356.8787-.801 1.046-.106.0422-.222.0719-.352.0872-.413.0561-.832-.0451-1.174-.2833-.139-.0864-.252-.2091-.326-.355-.075-.1458-.108-.3092-.096-.4725.015-.2977.015-.5925.012-.8864l-.002-.1524v-.0001zm-20.17-1.2928c-.232.8185-.462 1.634-.69 2.4465-.075.2636-.15.527-.225.7904l-.001.0019c-.196.6886-.392 1.3771-.579 2.0678-.052.1934-.14.2429-.331.2384-.663-.0113-1.3286-.0135-1.9942 0-.0418.0081-.085.0071-.1264-.0028-.0415-.01-.0803-.0287-.114-.0549-.0336-.0262-.0613-.0592-.0811-.097s-.0313-.0793-.0338-.1219c-.4214-1.8021-.8484-3.602-1.2755-5.402l-.001-.0041c-.1742-.7343-.3485-1.4686-.5223-2.2031-.1124-.4722-.2249-.9444-.3395-1.4166-.036-.1439-.0405-.2248.1506-.2248h2.4734c.1574 0 .2249.0629.2384.2046.2698 1.631.5351 3.2559.796 4.8749.0193.1701.0688.3353.1461.4879.0266-.0949.0536-.187.0803-.2782v-.0001c.0366-.1248.0726-.2477.1064-.3737.4156-1.562.8286-3.1248 1.2386-4.6883.003-.0343.013-.0676.029-.0979s.039-.0568.066-.078.058-.0364.091-.0449c.034-.0084.068-.0098.102-.0041.178 0 .355.0018.533.0035.356.0035.713.007 1.068-.0035.212 0 .292.0697.344.2654.346 1.3175.7 2.6336 1.053 3.9505l.256.9514c.019.1036.07.1986.146.272.034-.1942.068-.3884.102-.5827v-.001-.0011c.068-.3874.136-.7749.202-1.1623l.083-.4858v-.0007-.0001-.0001c.168-.9783.337-1.9581.497-2.9379.033-.2024.112-.2721.326-.2676.511.009 1.023.006 1.535.003.256-.0015.512-.003.767-.003.203 0 .299 0 .225.2676-.468 1.9246-.922 3.8493-1.379 5.7838l-.231.9777c-.058.2466-.117.4932-.177.7399v.0001.0001.0013c-.122.5063-.244 1.013-.356 1.5206-.038.1799-.117.2249-.283.2249h-2.024c-.042.0084-.085.0078-.127-.0016-.042-.0095-.082-.0276-.116-.0532-.035-.0257-.064-.0582-.085-.0956-.021-.0375-.034-.0789-.038-.1217-.401-1.4773-.82-2.9563-1.24-4.4385v-.0001-.0001l-.184-.6498c-.003-.0131-.005-.0268-.007-.0406-.007-.0505-.014-.103-.094-.1348zm8.682 5.3696c1.314.6746 2.73.4498 3.935-.6161.07.1975.122.3748.173.5467v.0004l.016.0533c.013.0593.047.1116.097.1463.05.0346.111.0491.171.0403h2.615c.182 0 .247-.0494.162-.2248-.275-.6376-.399-1.3303-.362-2.0237 0-.4587.003-.9175.005-1.3765.006-.9182.011-1.8367-.005-2.7542-.025-1.2839-.596-2.2755-1.783-2.8579-.96-.4722-1.986-.4992-3.02-.4002-.788.0665-1.544.3412-2.19.796-.342.2228-.628.5212-.837.872-.208.3508-.334.7448-.366 1.1517-.014.1506 0 .2428.198.2428h2.586c.137.0023.193-.0337.206-.1821.041-.4115.246-.7308.661-.8073.455-.0854.925-.1146 1.271.3036.193.2585.285.578.261.8994v.0069c.001.2825.001.423-.068.4929-.07.0691-.208.0691-.483.0691h-.562c-.825-.0172-1.646.1201-2.42.4048-1.086.4204-1.765 1.1715-1.873 2.3655-.119 1.3176.45 2.2598 1.612 2.8511zm2.03-1.7881c.262.0638.537.0603.797-.0107.277-.0405.529-.1828.707-.399.177-.2162.268-.4909.253-.7703v-.2518c0-.119 0-.2388 0-.354v-.2621c0-.1529-.036-.2249-.202-.2249-.206.0075-.411.005-.616.0025-.103-.0012-.206-.0025-.309-.0025-.767.0452-1.235.4871-1.292 1.1944-.007.0748-.009.1526-.007.2334.001.188.063.3707.176.521.097.1294.228.2288.378.2879.024.0095.048.018.073.0254.014.0037.028.0073.042.0107z" fill="#61d4db" fill-rule="evenodd"/><path d="m29.9279 25.8113c-.9545.1671-1.8423.6005-2.5612 1.2502-.498.4624-.8976 1.0205-1.1746 1.6411-.2771.6205-.4259 1.2906-.4376 1.9701.005.4024-.0714.8017-.2248 1.1738-.1337.3219-.3591.5973-.6482.792s-.629.3001-.9776.303c-1.601.0877-3.0445.5554-4.1823 1.7517-.4138.4217-.7381.9226-.9534 1.4728-.0271.0987-.0827.1872-.1599.2544s-.1726.1101-.2741.1233c-.0247-.0449-.0674-.0539-.1147-.0674-1.4081-.3725-2.78-.8707-4.0991-1.4886-1.2352-.5768-2.4013-1.2911-3.4763-2.1294-.815-.6251-1.56122-1.3352-2.22609-2.1181-.88175-1.0539-1.60585-2.2302-2.14963-3.4921-.25343-.5308-.46981-1.0785-.64759-1.6392-.22486-.8747-.24735-1.7741-.32605-2.6533-.07195-.7982-.09893-1.601-.10568-2.4015 0-1.8213-.0832-3.6449.05397-5.4662l.17988.1753c.48825.5144 1.09315.9037 1.76358 1.135.67042.2313 1.38667.2978 2.08823.194 2.04618-.2631 3.59768-1.8484 3.85628-4.0003.1052-.9666-.1094-1.941-.611-2.77401-.5016-.83298-1.2624-1.47854-2.166-1.83777-1.00694-.40892-2.1262-.44795-3.15921-.11018-.00214-.11325.03346-.224.10118-.3148.19113-.3193.37327-.64759.58013-.95789.6535-1.00268 1.4419-1.91063 2.343-2.69829.8534-.74446 1.8176-1.35136 2.858-1.79885.2248-.0922.4677-.11468.6408-.29682.5736-.03598 1.1488-.03598 1.7224 0 .0337.10344.1349.09669.2091.11693.5469.15902 1.0812.35818 1.5988.59587 1.0613.4812 2.0641 1.06582 2.8579 1.93377.7998.86479 1.4935 1.82196 2.0664 2.85119.2002.36427.4745.69931.5397 1.12429-.4993-.35144-1.0656-.59647-1.6636-.71986-.598-.1234-1.215-.12252-1.8127.00257-2.3722.5374-3.8586 2.65105-3.555 5.08175.1452 1.0296.6438 1.9766 1.4105 2.6789s1.7538 1.1162 2.7921 1.1707c1.945.0539 3.3728-.8095 4.2903-2.5229.0562.0382.0539.0944.0562.1506.036.5779.0629 1.158.0584 1.7382-.0339 1.476.0609 2.9521.2834 4.4117.1731 1.0321.4699 2.0237 1.104 2.8759.6746.9242 1.655 1.4436 2.6736 1.8888.5194.2271 1.0523.4182 1.5785.6296z" fill="#c5d6d7"/><path d="m13.7154 1.82358c-.1731.18214-.425.20462-.6408.29681-1.0404.4475-2.0046 1.0544-2.858 1.79886-.90109.78766-1.6895 1.69561-2.34299 2.69829-.20687.3103-.389.63859-.58013.95789-.06279.08552-.09738.18848-.09894.29457-.06746.03148-.13491.06296-.20462.08994-.83159.33274-1.54488.90623-2.04845 1.64696-.50357.7407-.77448 1.615-.77801 2.5106-.00246 1.0866.37991 2.1389 1.07932 2.9704-.13716 1.8214-.06521 3.645-.05397 5.4663 0 .8005.03373 1.6032.10569 2.4015.0787.8994.09669 1.7853.33279 2.6533.17486.5604.38823 1.1081.63859 1.6392.54378 1.2619 1.26788 2.4382 2.14964 3.492.66486.783 1.41109 1.493 2.22608 2.1182 1.075.8382 2.2412 1.5525 3.4763 2.1294 1.3176.6176 2.688 1.1158 4.0946 1.4885.0473.0135.09.0225.1147.0675-.5678.1853-1.1574.2956-1.7539.3283-3.148.2878-5.8463-.8073-8.24773-2.741-1.98197-1.5492-3.65089-3.4616-4.91763-5.6349-.83822-1.4659-1.35198-3.0945-1.50654-4.776-.07195-.841-.10343-1.6842-.10343-2.5229 0-2.3588 0-4.722 0-7.0785-.01233-2.8079.97076-5.52936 2.77473-7.68115 1.77559-2.23606 4.27443-3.78402 7.0673-4.37797.6803-.15883 1.3768-.23807 2.0754-.2361z" fill="#aebdbe"/><path d="m29.9291 25.8114c-.5262-.2113-1.0591-.4092-1.574-.6363-1.0187-.4497-1.9878-.9647-2.6736-1.8888-.6341-.8567-.9309-1.8439-1.1041-2.876-.2254-1.4592-.3232-2.9354-.2923-4.4117 0-.5801-.0225-1.1602-.0584-1.7381 0-.0562 0-.1124-.0562-.1507.4442-.9066.5671-1.9374.3485-2.9231-.2339-1.1067-.8762-2.08455-1.7989-2.73876-.0652-.42948-.3395-.76452-.5396-1.12429-.5729-1.02923-1.2667-1.9864-2.0665-2.85119-.7937-.86795-1.7988-1.45258-2.8579-1.93377-.5175-.23769-1.0519-.43685-1.5987-.59587-.0742-.02024-.1754-.01349-.2092-.11693.6721-.03289 1.3455.02153 2.0035.1619 2.0316.34273 3.9392 1.20745 5.536 2.50941 2.1049 1.67012 3.5906 3.99642 4.2206 6.6086.2351.895.3463 1.818.3305 2.7432-.018.5711-.0652 1.14-.0405 1.7112.0787 1.9203.4498 3.7618 1.5133 5.3965.6976 1.0875 1.7103 1.9362 2.9029 2.433.2441.093.5034.1395.7646.1372.2248 0 .2788.0697.2451.2968-.1664 1.1512-.9242 1.6482-1.9968 1.8483-.3305.072-.6656.0989-.9983.1394z" fill="#838d8e"/><path d="m5.24339 15.0879c-.69941-.8315-1.08178-1.8838-1.07932-2.9703.00523-.8951.27743-1.7682.78175-2.50767.50432-.73946 1.21783-1.31161 2.04921-1.64321.0697-.02699.13716-.05847.20462-.08995 1.02879-.33718 2.14356-.30055 3.14795.10344.9048.35809 1.6672 1.00316 2.17 1.83624.5029.83305.7185 1.80815.6138 2.77555-.2474 2.1519-1.7989 3.7372-3.85632 4.0002-.70155.1039-1.41781.0374-2.08823-.1939-.67043-.2313-1.27532-.6206-1.76357-1.135zm3.41783-2.9231c0-.6746 0-1.3671 0-2.0507 0-.19113-.06071-.24059-.2406-.22485-.56743.04019-1.09853.29395-1.4863.71015s-.60337.9639-.60337 1.5328c0 .5688.2156 1.1166.60337 1.5328s.91887.6699 1.4863.7101c.18214.0203.2451-.0292.24285-.2248-.009-.6476-.00225-1.3132-.00225-1.9765z" fill="#364159"/><path d="m22.7098 8.45692c.9227.65422 1.565 1.63208 1.7989 2.73878.2186.9857.0957 2.0165-.3486 2.9231-.9039 1.7044-2.3317 2.5679-4.2767 2.5207-1.0383-.0545-2.0254-.4684-2.7921-1.1707s-1.2654-1.6493-1.4105-2.6789c-.3036-2.4307 1.1827-4.54435 3.5595-5.05028.5966-.12412 1.2123-.12451 1.8091-.00113s1.1619.3679 1.6604.71843zm-2.5813 3.69668c0-.6746 0-1.3492 0-2.0237 0-.20916-.0675-.25413-.2586-.2249-.5646.04383-1.0918.299-1.4764.7146-.3845.4156-.5982.961-.5982 1.5272 0 .5663.2137 1.1116.5982 1.5272.3846.4156.9118.6708 1.4764.7147.2046.0247.2518-.0428.2473-.2384.0045-.6588.0113-1.3334.0113-1.9967z" fill="#364159"/><path d="m8.66162 12.1737v1.9923c0 .1911-.06071.2406-.24284.2248-.56744-.0402-1.09854-.2939-1.48631-.7102-.38776-.4162-.60337-.9639-.60337-1.5327 0-.5689.21561-1.1166.60337-1.5328.38777-.4162.91887-.66998 1.48631-.71018.17988-.01798.24284.03148.24059.22488-.00449.6768.00225 1.3604.00225 2.0439z" fill="#63d990"/><path d="m20.1285 12.1535v1.9945c0 .1956-.0427.2631-.2473.2383-.5646-.0438-1.0918-.299-1.4764-.7146-.3845-.4156-.5982-.9609-.5982-1.5272 0-.5662.2137-1.1116.5982-1.5272.3846-.4156.9118-.67078 1.4764-.7146.1911-.02474.2608.02023.2586.2249-.0203.679-.0113 1.3513-.0113 2.0259z" fill="#6fd8de"/></g></svg>