<svg fill="none" height="30" viewBox="0 0 147 30" width="147" xmlns="http://www.w3.org/2000/svg" xmlns:xlink="http://www.w3.org/1999/xlink"><linearGradient id="a"><stop offset="0" stop-color="#03b8ff"/><stop offset="1" stop-color="#fa52a0"/></linearGradient><linearGradient id="b" gradientUnits="userSpaceOnUse" x1="11.4732" x2="16.4029" xlink:href="#a" y1="-.723868" y2="16.2041"/><linearGradient id="c" gradientUnits="userSpaceOnUse" x1="15.5323" x2="20.4621" xlink:href="#a" y1="-1.90622" y2="15.0219"/><linearGradient id="d" gradientUnits="userSpaceOnUse" x1="7.42616" x2="12.356" xlink:href="#a" y1=".45464" y2="17.3827"/><path d="m6.60283 1.68939 24.85827 16.97311-6.1477 9.088-24.858322-17.1068z" fill="url(#b)"/><path d="m31.4606 18.6625c-2.1384 3.0739-9.3553 1.8711-16.1713-2.9402-6.94961-4.6776-10.69172-10.95901-8.68702-14.03289 2.13835-3.07387 9.35532-1.871054 16.17122 2.94023 6.9497 4.54399 10.6918 10.95906 8.6871 14.03286z" fill="url(#c)"/><path d="m25.3134 27.6169c-2.1383 3.0739-9.3552 1.871-16.17121-2.9403-6.81599-4.8112-10.69174-10.959-8.553396-14.1665 2.138346-3.07389 9.355276-1.87106 16.171306 2.9402 6.8159 4.8113 10.558 11.0927 8.5533 14.1666z" fill="url(#d)"/><path d="m31.4607 18.6626-6.1477 9.088c-2.1384 3.0738-9.197 1.7374-16.013-2.9403-1.33647-.9355-2.47-1.871-3.65059-2.9402.93553-.1336 1.88855-.6682 3.09137-2.0047 2.13832-2.272 3.20752-2.8066 4.14302-2.6729.9356 0 2.0047.9355 3.7421 3.2075s4.1431 2.9402 5.6132 1.7374c.1336-.1337.2673-.1337.4009-.2673 1.2029-.9355 1.6038-1.3365 3.8758-5.6132.5346-1.0691 2.4449-2.8065 4.9842-2.0047.68 1.8478.67 3.3978-.0393 4.4104z" fill="#0e0f23"/><path clip-rule="evenodd" d="m30.5253 18.1279c-1.8711 2.673-8.4198 1.3365-14.7012-3.0738-6.41503-4.4104-10.15714-10.02354-8.28608-12.69648 1.87105-2.67293 8.41978-1.33646 14.70118 3.07388s10.0235 10.0235 8.2861 12.6964zm-5.8805-4.0094c-.9355 1.3365-4.143.6683-7.3506-1.4701-3.0738-2.1383-4.9449-4.9449-4.0094-6.28137.9356-1.33647 4.1431-.66824 7.3506 1.47011 3.0739 2.13835 4.9449 4.94496 4.0094 6.28136z" fill="#fff" fill-rule="evenodd"/><path d="m6.06779 4.76328c0-.13364-.13365-.26729-.26729-.13364-.13365.13364-.2673.13364-.2673.26729.13365.40094.2673.66824.2673.93553 0 .13365.13364.26729.26729.13365.13365 0 .26729-.13365.13365-.2673 0-.26729 0-.53458-.13365-.93553z" fill="#fff"/><path d="m6.7359 6.90165c0-.13365-.13365-.26729-.26729-.13365-.13365.13365-.13365.13365-.13365.2673 1.47012 3.3412 4.54404 6.9496 8.55344 9.6226.1336.1336.2672 0 .4009 0 .1336-.1337 0-.2673 0-.401-4.1431-2.6729-7.08328-6.1477-8.5534-9.35525z" fill="#fff"/><path d="m22.9069 19.999c-.1336 0-.2673 0-.2673.1337 0 .1336 0 .2673.1337.2673.4009.1336.9355.2673 1.3365.4009.1336 0 .2673 0 .2673-.1336 0-.1337 0-.2673-.1337-.2673-.4009-.1337-.9355-.2673-1.3365-.401z" fill="#fff"/><path d="m25.3132 20.5336c-.1337 0-.2673.1337-.2673.2673 0 .1337.1336.2673.2673.2673 1.0692.1337 2.272.2673 3.2075.1337.1337 0 .2673-.1337.2673-.2673 0-.1337-.1336-.2673-.2673-.2673-1.0692.1336-2.1383 0-3.2075-.1337z" fill="#fff"/><g fill="#000"><path d="m47.4361 21.7344c-.896 0-1.7024-.1536-2.4192-.4608-.7168-.32-1.28-.768-1.6896-1.344s-.6144-1.248-.6144-2.016h2.3424c.0512.576.2752 1.0496.672 1.4208.4096.3712.9792.5568 1.7088.5568.7552 0 1.344-.1792 1.7664-.5376.4224-.3712.6336-.8448.6336-1.4208 0-.448-.1344-.8128-.4032-1.0944-.256-.2816-.5824-.4992-.9792-.6528-.384-.1536-.9216-.32-1.6128-.4992-.8704-.2304-1.5808-.4608-2.1312-.6912-.5376-.2432-.9984-.6144-1.3824-1.1136s-.576-1.1648-.576-1.9968c0-.768.192-1.44.576-2.01596.384-.576.9216-1.0176 1.6128-1.3248s1.4912-.4608 2.4-.4608c1.2928 0 2.3488.3264 3.168.9792.832.64 1.2928 1.52316 1.3824 2.64956h-2.4192c-.0384-.4864-.2688-.9024-.6912-1.248s-.9792-.51836-1.6704-.51836c-.6272 0-1.1392.15996-1.536.47996s-.5952.7808-.5952 1.3824c0 .4096.1216.7488.3648 1.0176.256.256.576.4608.96.6144s.9088.32 1.5744.4992c.8832.2432 1.6.4864 2.1504.7296.5632.2432 1.0368.6208 1.4208 1.1328.3968.4992.5952 1.1712.5952 2.016 0 .6784-.1856 1.3184-.5568 1.92-.3584.6016-.8896 1.088-1.5936 1.4592-.6912.3584-1.5104.5376-2.4576.5376z"/><path d="m64.2076 11.0208v10.5792h-2.1888v-1.248c-.3456.4352-.8.7808-1.3632 1.0368-.5504.2432-1.1392.3648-1.7664.3648-.832 0-1.5808-.1728-2.2464-.5184-.6528-.3456-1.1712-.8576-1.5552-1.536-.3712-.6784-.5568-1.4976-.5568-2.4576v-6.2208h2.1696v5.8944c0 .9472.2368 1.6768.7104 2.1888.4736.4992 1.12.7488 1.9392.7488s1.4656-.2496 1.9392-.7488c.4864-.512.7296-1.2416.7296-2.1888v-5.8944z"/><path d="m70.9355 21.7728c-.832 0-1.5808-.1472-2.2464-.4416-.6528-.3072-1.1712-.7168-1.5552-1.2288-.384-.5248-.5888-1.1072-.6144-1.7472h2.2656c.0384.448.2496.8256.6336 1.1328.3968.2944.8896.4416 1.4784.4416.6144 0 1.088-.1152 1.4208-.3456.3456-.2432.5184-.5504.5184-.9216 0-.3968-.192-.6912-.576-.8832-.3712-.192-.9664-.4032-1.7856-.6336-.7936-.2176-1.44-.4288-1.9392-.6336s-.9344-.5184-1.3056-.9408c-.3584-.4224-.5376-.9792-.5376-1.6704 0-.5632.1664-1.0752.4992-1.536.3328-.4736.8064-.8448 1.4208-1.1136.6272-.2688 1.344-.4032 2.1504-.4032 1.2032 0 2.1696.3072 2.8992.9216.7424.6016 1.1392 1.4272 1.1904 2.4768h-2.1888c-.0384-.4736-.2304-.8512-.576-1.1328s-.8128-.4224-1.4016-.4224c-.576 0-1.0176.1088-1.3248.3264s-.4608.5056-.4608.864c0 .2816.1024.5184.3072.7104s.4544.3456.7488.4608c.2944.1024.7296.2368 1.3056.4032.768.2048 1.3952.416 1.8816.6336.4992.2048.928.512 1.2864.9216s.544.9536.5568 1.632c0 .6016-.1664 1.1392-.4992 1.6128s-.8064.8448-1.4208 1.1136c-.6016.2688-1.312.4032-2.1312.4032z"/><path d="m82.8238 10.848c.8064 0 1.5232.1728 2.1504.5184.64.3456 1.1392.8576 1.4976 1.536.3712.6784.5568 1.4976.5568 2.4576v6.24h-2.1696v-5.9136c0-.9472-.2368-1.6704-.7104-2.1696-.4736-.512-1.12-.768-1.9392-.768s-1.472.256-1.9584.768c-.4736.4992-.7104 1.2224-.7104 2.1696v5.9136h-2.1888v-14.20796h2.1888v4.85756c.3712-.448.8384-.7936 1.4016-1.0368.576-.2432 1.2032-.3648 1.8816-.3648z"/><path d="m90.9341 9.61924c-.3968 0-.7296-.1344-.9984-.4032s-.4032-.6016-.4032-.9984.1344-.7296.4032-.9984.6016-.4032.9984-.4032c.384 0 .7104.1344.9792.4032s.4032.6016.4032.9984-.1344.7296-.4032.9984-.5952.4032-.9792.4032zm1.0752 1.40156v10.5792h-2.1888v-10.5792z"/><path d="m99.2798 21.7344c-.896 0-1.7024-.1536-2.4192-.4608-.7168-.32-1.28-.768-1.6896-1.344s-.6144-1.248-.6144-2.016h2.3424c.0512.576.2752 1.0496.672 1.4208.4096.3712.9792.5568 1.7088.5568.7552 0 1.3442-.1792 1.7662-.5376.423-.3712.634-.8448.634-1.4208 0-.448-.135-.8128-.403-1.0944-.256-.2816-.583-.4992-.98-.6528-.3836-.1536-.9212-.32-1.6124-.4992-.8704-.2304-1.5808-.4608-2.1312-.6912-.5376-.2432-.9984-.6144-1.3824-1.1136s-.576-1.1648-.576-1.9968c0-.768.192-1.44.576-2.01596.384-.576.9216-1.0176 1.6128-1.3248s1.4912-.4608 2.4-.4608c1.2932 0 2.3492.3264 3.1682.9792.832.64 1.293 1.52316 1.382 2.64956h-2.419c-.038-.4864-.269-.9024-.691-1.248-.423-.3456-.9794-.51836-1.6706-.51836-.6272 0-1.1392.15996-1.536.47996s-.5952.7808-.5952 1.3824c0 .4096.1216.7488.3648 1.0176.256.256.576.4608.96.6144s.9088.32 1.5744.4992c.8836.2432 1.5996.4864 2.1506.7296.563.2432 1.037.6208 1.421 1.1328.396.4992.595 1.1712.595 2.016 0 .6784-.186 1.3184-.557 1.92-.358.6016-.89 1.088-1.594 1.4592-.691.3584-1.51.5376-2.4572.5376z"/><path d="m120.679 11.0208-3.284 10.5792h-2.304l-2.131-7.8144-2.131 7.8144h-2.304l-3.302-10.5792h2.227l2.208 8.5056 2.246-8.5056h2.285l2.15 8.4672 2.189-8.4672z"/><path d="m121.585 16.2624c0-1.0624.217-2.0032.652-2.8224.448-.8192 1.05-1.4528 1.805-1.9008.768-.4608 1.613-.6912 2.535-.6912.832 0 1.555.1664 2.169.4992.627.32 1.127.7232 1.498 1.2096v-1.536h2.208v10.5792h-2.208v-1.5744c-.371.4992-.877.9152-1.517 1.248s-1.37.4992-2.189.4992c-.909 0-1.741-.2304-2.496-.6912-.755-.4736-1.357-1.1264-1.805-1.9584-.435-.8448-.652-1.7984-.652-2.8608zm8.659.0384c0-.7296-.154-1.3632-.461-1.9008-.294-.5376-.685-.9472-1.171-1.2288-.487-.2816-1.011-.4224-1.575-.4224-.563 0-1.088.1408-1.574.4224-.486.2688-.883.672-1.19 1.2096-.295.5248-.442 1.152-.442 1.8816s.147 1.3696.442 1.92c.307.5504.704.9728 1.19 1.2672.499.2816 1.024.4224 1.574.4224.564 0 1.088-.1408 1.575-.4224.486-.2816.877-.6912 1.171-1.2288.307-.5504.461-1.1904.461-1.92z"/><path d="m137.516 12.576c.371-.4864.876-.896 1.516-1.2288s1.364-.4992 2.17-.4992c.922 0 1.76.2304 2.515.6912.768.448 1.37 1.0816 1.805 1.9008s.653 1.76.653 2.8224-.218 2.016-.653 2.8608c-.435.832-1.037 1.4848-1.805 1.9584-.755.4608-1.593.6912-2.515.6912-.806 0-1.523-.16-2.15-.48-.628-.3328-1.14-.7424-1.536-1.2288v6.5664h-2.189v-15.6096h2.189zm6.432 3.6864c0-.7296-.154-1.3568-.461-1.8816-.295-.5376-.691-.9408-1.191-1.2096-.486-.2816-1.011-.4224-1.574-.4224-.55 0-1.075.1408-1.574.4224-.487.2816-.884.6912-1.191 1.2288-.294.5376-.441 1.1712-.441 1.9008s.147 1.3696.441 1.92c.307.5376.704.9472 1.191 1.2288.499.2816 1.024.4224 1.574.4224.563 0 1.088-.1408 1.574-.4224.5-.2944.896-.7168 1.191-1.2672.307-.5504.461-1.1904.461-1.92z"/></g></svg>