<svg fill="none" height="36" viewBox="0 0 128 36" width="128" xmlns="http://www.w3.org/2000/svg"><path d="m36 18c0-9.94112-8.0589-18-18-18-9.94112 0-18 8.05888-18 18 0 9.9411 8.05888 18 18 18 9.9411 0 18-8.0589 18-18z" fill="#784ffe"/><path clip-rule="evenodd" d="m11.2117 13.5265 12.6966-.0626-3.0399 4.5792 7.1739-.0347-3.0402 4.5024-12.7788.0818 3.0878-4.5471-7.14899-.0027z" fill="#fff" fill-rule="evenodd"/><path d="m48.6689 25.1199v-3.3152l7.552-9.296h-7.3727v-3.24802h12.1683v3.06882l-7.7312 9.4752h7.888v3.3152zm21.1107-4.8608h-.4706c-.4033 0-.8142.0224-1.2325.0672-.4034.0299-.7694.0971-1.098.2016-.3138.1045-.5753.2613-.7844.4704-.2092.1941-.3137.4555-.3137.784 0 .2091.0448.3883.1345.5376.1045.1493.2314.2688.3809.3584.1494.0896.3211.1568.5154.2016.1942.0299.381.0448.5603.0448.7468 0 1.3146-.2016 1.7031-.6048.4033-.4181.605-.9781.605-1.68zm-6.7452-4.7712c.6573-.6272 1.4192-1.0976 2.2858-1.4112.8813-.3136 1.7777-.4704 2.6891-.4704.9412 0 1.7329.1195 2.3754.3584.6572.224 1.1877.5824 1.591 1.0752.4034.4779.6947 1.0901.874 1.8368.1941.7317.2913 1.6053.2913 2.6208v5.6224h-3.3614v-1.1872h-.0672c-.284.4629-.7171.8213-1.2997 1.0752-.5678.2539-1.1877.3808-1.86.3808-.4482 0-.9114-.0597-1.3894-.1792-.4781-.1195-.9188-.3136-1.3221-.5824-.3885-.2688-.7098-.6272-.9636-1.0752-.2541-.448-.381-1.0005-.381-1.6576 0-.8064.2166-1.456.6499-1.9488.4482-.4928 1.0157-.8736 1.7031-1.1424.702-.2688 1.479-.448 2.3305-.5376.8516-.0896 1.6807-.1344 2.4875-.1344v-.1792c0-.5525-.1944-.9557-.5827-1.2096-.3885-.2688-.8666-.4032-1.4342-.4032-.5229 0-1.0308.112-1.5238.336-.4781.224-.889.4928-1.2325.8064zm25.2643 4.0096c0 .7765-.1195 1.5232-.3586 2.24-.239.7168-.59 1.3515-1.0532 1.904-.4482.5376-1.0009.9707-1.6583 1.2992-.6573.3285-1.4043.4928-2.241.4928-.6871 0-1.337-.1344-1.9496-.4032-.6124-.2837-1.0905-.6645-1.4342-1.1424h-.0448v6.608h-3.6751v-16.5312h3.4959v1.3664h.0672c.3436-.448.8142-.8363 1.4118-1.1648.6125-.3435 1.3296-.5152 2.1513-.5152.8067 0 1.5388.1568 2.1961.4704.6574.3136 1.2101.7392 1.6583 1.2768.4632.5376.8142 1.1648 1.0532 1.8816.254.7019.381 1.4411.381 2.2176zm-3.5631 0c0-.3584-.0597-.7093-.1793-1.0528-.1045-.3435-.2689-.6421-.493-.896-.2091-.2688-.478-.4853-.8067-.6496s-.7096-.2464-1.1429-.2464c-.4183 0-.7917.0821-1.1205.2464-.3286.1643-.6124.3808-.8515.6496-.2241.2688-.4034.5749-.5379.9184-.1194.3435-.1792.6944-.1792 1.0528s.0598.7093.1792 1.0528c.1345.3435.3138.6496.5379.9184.2391.2688.5229.4853.8515.6496.3288.1643.7022.2464 1.1205.2464.4333 0 .8142-.0821 1.1429-.2464s.5976-.3808.8067-.6496c.2241-.2688.3885-.5749.493-.9184.1196-.3584.1793-.7168.1793-1.0752zm18.2914 0c0 .7765-.12 1.5232-.359 2.24s-.59 1.3515-1.053 1.904c-.448.5376-1.001.9707-1.6584 1.2992s-1.4043.4928-2.2409.4928c-.6872 0-1.3371-.1344-1.9496-.4032-.6126-.2837-1.0906-.6645-1.4342-1.1424h-.0448v6.608h-3.6752v-16.5312h3.4959v1.3664h.0672c.3437-.448.8143-.8363 1.4118-1.1648.6126-.3435 1.3297-.5152 2.1513-.5152.8067 0 1.5387.1568 2.1961.4704.6578.3136 1.2098.7392 1.6578 1.2768.464.5376.815 1.1648 1.054 1.8816.254.7019.381 1.4411.381 2.2176zm-3.5634 0c0-.3584-.0597-.7093-.1793-1.0528-.1045-.3435-.2689-.6421-.493-.896-.2092-.2688-.4781-.4853-.8067-.6496s-.7096-.2464-1.1429-.2464c-.4182 0-.7918.0821-1.1205.2464-.3286.1643-.6125.3808-.8515.6496-.2241.2688-.4034.5749-.5378.9184-.1196.3435-.1793.6944-.1793 1.0528s.0597.7093.1793 1.0528c.1344.3435.3137.6496.5378.9184.239.2688.5229.4853.8515.6496.3287.1643.7023.2464 1.1205.2464.4333 0 .8143-.0821 1.1429-.2464s.5975-.3808.8067-.6496c.2241-.2688.3885-.5749.493-.9184.1196-.3584.1793-.7168.1793-1.0752zm13.5624-1.232c0-.5824-.186-1.0827-.56-1.5008-.358-.4181-.904-.6272-1.636-.6272-.358 0-.687.0597-.986.1792-.299.1045-.56.2539-.784.448s-.403.4256-.538.6944c-.134.2539-.209.5227-.224.8064zm3.384 1.4112v.448c0 .1493-.007.2912-.022.4256h-8.09c.03.3136.12.5973.269.8512.164.2539.366.4779.605.672.254.1792.53.3211.829.4256.314.1045.635.1568.964.1568.582 0 1.075-.1045 1.479-.3136.403-.224.732-.5077.986-.8512l2.554 1.6128c-.523.7616-1.217 1.3515-2.084 1.7696-.851.4032-1.845.6048-2.98.6048-.837 0-1.628-.1269-2.376-.3808-.747-.2688-1.404-.6496-1.972-1.1424-.552-.5077-.993-1.1275-1.322-1.8592-.313-.7317-.47-1.568-.47-2.5088 0-.9109.157-1.7323.47-2.464.314-.7467.74-1.3739 1.278-1.8816.537-.5227 1.172-.9259 1.904-1.2096s1.524-.4256 2.376-.4256c.821 0 1.576.1419 2.263.4256.687.2688 1.277.6645 1.77 1.1872s.874 1.1573 1.143 1.904c.284.7467.426 1.5979.426 2.5536zm9.517-2.7104c-.164-.0448-.328-.0747-.493-.0896-.149-.0149-.298-.0224-.448-.0224-.493 0-.911.0896-1.255.2688-.328.1792-.597.3957-.806.6496-.195.2539-.337.5301-.426.8288-.09.2987-.135.56-.135.784v5.7344h-3.675v-11.1552h3.541v1.6128h.045c.284-.5675.687-1.0304 1.21-1.3888s1.128-.5376 1.815-.5376c.149 0 .291.0075.426.0224.149.0149.269.0373.358.0672z" fill="#141a1e"/></svg>